<?xml version="1.0" encoding="UTF-8"?>
<svg version="1.1" xmlns="http://www.w3.org/2000/svg" width="7874" height="7874">
<path d="M0 0 C1.73446455 1.00330273 3.46893641 2.00659291 5.2036438 3.00947571 C19.30542015 11.16947376 33.24262492 19.54827524 47.0234375 28.2421875 C53.42077045 32.27690529 59.86488021 36.23381073 66.3125 40.1875 C73.69961725 44.72051606 81.06292607 49.28443487 88.375 53.9375 C216.41166896 136.2768199 216.41166896 136.2768199 371.88085938 170.31567383 C374.36633156 170.31251103 376.8506107 170.3361026 379.3359375 170.36132812 C393.55006871 170.41761303 407.43138162 168.70737711 421.125 164.75 C421.85960449 164.54020508 422.59420898 164.33041016 423.35107422 164.11425781 C442.19233571 158.50678768 459.42421719 148.84938542 474.46533203 136.28198242 C475.50094334 135.41688618 476.54382182 134.56042597 477.59326172 133.7121582 C480.64239169 131.23313266 483.33550872 128.68409971 485.875 125.6875 C486.47054687 124.99011719 487.06609375 124.29273437 487.6796875 123.57421875 C488.11539063 123.05472656 488.55109375 122.53523438 489 122 C489.66 122.33 490.32 122.66 491 123 C475.70137154 155.94946172 458.34906761 187.98111886 435 216 C434.26394531 216.92039062 433.52789063 217.84078125 432.76953125 218.7890625 C401.22896611 257.42014229 361.11067683 283.57318278 312 293 C310.93136719 293.01675781 309.86273437 293.03351562 308.76171875 293.05078125 C305.46866371 294.18262336 305.28665544 294.75211502 303.796875 297.76953125 C303.0932784 299.44171537 302.41245692 301.1235954 301.75 302.8125 C300.9749061 304.65124089 300.19615141 306.4884422 299.4140625 308.32421875 C299.01735352 309.2682959 298.62064453 310.21237305 298.21191406 311.18505859 C276.6267848 361.32134796 238.70459044 407.79368225 187.07910156 428.50585938 C177.613663 432.1103892 167.89142338 434.84807155 158 437 C157.23703613 437.16661133 156.47407227 437.33322266 155.68798828 437.50488281 C126.25885349 443.5164168 93.34004142 441.42386247 64 436 C62.25106445 435.67854004 62.25106445 435.67854004 60.46679688 435.35058594 C4.43266133 424.74577847 -48.56978297 402.70484625 -100.60546875 380.04229736 C-102.85599093 379.06268462 -105.1074461 378.08526059 -107.359375 377.10888672 C-120.39569087 371.45562227 -133.3976086 365.73036005 -146.35583496 359.90022278 C-224.70865426 324.41243831 -224.70865426 324.41243831 -307 300 C-307.82709473 299.81002441 -308.65418945 299.62004883 -309.50634766 299.42431641 C-347.20877789 290.79309657 -389.61570708 288.38350627 -426.171875 303.30078125 C-428 304 -428 304 -430 304 C-430.27730957 304.7329126 -430.55461914 305.4658252 -430.84033203 306.22094727 C-432.7220095 310.73023876 -435.33136541 314.7750589 -437.875 318.9375 C-438.48069824 319.92878906 -439.08639648 320.92007813 -439.71044922 321.94140625 C-451.44115133 340.95816805 -463.51374351 359.95079043 -478 377 C-479.60594827 378.9985697 -481.21021927 380.99848878 -482.8125 383 C-485.81322031 386.66033811 -488.9294354 390.05387383 -492.3359375 393.3359375 C-494.08429144 395.08429144 -495.65925562 396.92019271 -497.25 398.8125 C-507.76093657 410.94593013 -525.33815823 426.8999446 -542.35913086 428.17700195 C-558.33734243 428.55276613 -572.85834318 428.43466061 -586 418 C-595.54373778 408.10754872 -599.10865229 396.91632666 -599.625 383.4375 C-599.66367187 382.62603516 -599.70234375 381.81457031 -599.7421875 380.97851562 C-599.95297651 376.31480869 -600.03759555 371.66811462 -600 367 C-603.47905403 370.38388233 -606.86771388 373.7900715 -610 377.5 C-624.89940122 394.6326448 -642.21490522 411.93544025 -665.91015625 414.2890625 C-679.2519151 414.68410785 -693.21883905 412.09768059 -703.3125 402.890625 C-714.54999686 390.90947026 -716.60417261 376.6986438 -716.23828125 360.76953125 C-715.97449511 354.1099458 -715.09994044 347.57017996 -714 341 C-714.80824219 341.88042969 -715.61648438 342.76085938 -716.44921875 343.66796875 C-717.52858942 344.84119774 -718.60801967 346.01437191 -719.6875 347.1875 C-720.21794922 347.76564453 -720.74839844 348.34378906 -721.29492188 348.93945312 C-724.45677574 352.37287726 -727.68364737 355.71411921 -731 359 C-732.12876743 360.14990093 -733.2562724 361.30104189 -734.3828125 362.453125 C-741.58816485 369.78436441 -748.84514237 376.71445071 -757 383 C-758.00289062 383.79664062 -759.00578125 384.59328125 -760.0390625 385.4140625 C-768.05439132 391.74454654 -776.39013726 397.50935983 -785 403 C-785.57911133 403.36947754 -786.15822266 403.73895508 -786.75488281 404.11962891 C-846.87284039 442.08976264 -916.84855996 458.55571497 -986.75 466.1875 C-987.45144135 466.26640472 -988.15288269 466.34530945 -988.87557983 466.42660522 C-1019.70108216 469.84682829 -1050.70574095 470.38073191 -1081.6875 470.3125 C-1083.48814895 470.31027236 -1085.28879795 470.30809612 -1087.08944702 470.30596924 C-1118.47014441 470.25480133 -1149.69910723 469.37719177 -1181 467 C-1182.31238647 466.90054077 -1183.62477295 466.80108154 -1184.97692871 466.6986084 C-1194.34690888 465.9832736 -1203.71273126 465.22173485 -1213.07644272 464.42868805 C-1215.08510269 464.2586673 -1217.09389389 464.09019892 -1219.10269165 463.92181396 C-1268.3735478 459.73278902 -1317.47772574 453.51420428 -1366.46201742 446.82398617 C-1371.27171166 446.16708619 -1376.0818782 445.51372955 -1380.89224243 444.86175537 C-1428.68212408 438.38084654 -1476.40986764 431.49230411 -1524.12728548 424.5001421 C-1608.80597343 412.0923769 -1693.47144703 399.97498773 -2088 386 C-2088.72519836 386.07283203 -2089.45039673 386.14566406 -2090.1975708 386.22070312 C-2138.38417552 391.09405639 -2186.33297646 398.89533155 -2233 412 C-2233.65788513 412.18433594 -2234.31577026 412.36867188 -2234.99359131 412.55859375 C-2270.91333137 422.65848539 -2305.29944381 436.04551501 -2339 452 C-2340.29067383 452.61029053 -2340.29067383 452.61029053 -2341.60742188 453.23291016 C-2372.54088287 467.9812406 -2402.07131408 486.80082172 -2429 508 C-2430.34384766 509.04607422 -2430.34384766 509.04607422 -2431.71484375 510.11328125 C-2444.37105028 520.09029082 -2456.59643648 530.68887171 -2468.3125 541.75 C-2469.42117432 542.79607422 -2469.42117432 542.79607422 -2470.55224609 543.86328125 C-2482.52642882 555.15940117 -2482.52642882 555.15940117 -2493.46484375 567.44140625 C-2495.16669341 569.16923835 -2496.78747114 570.03948531 -2499 571 C-2493.69871519 562.18941398 -2487.65913253 554.06013385 -2481.43408203 545.89111328 C-2479.4528523 543.27848041 -2477.51081924 540.6372277 -2475.5625 538 C-2470.39333261 531.10151115 -2464.91674509 524.45761809 -2459.45703125 517.7890625 C-2457.59453249 515.50213372 -2455.76505651 513.18990491 -2453.9375 510.875 C-2446.22991522 501.22432662 -2438.07424347 491.95895343 -2429.66796875 482.9140625 C-2428.306841 481.42738417 -2426.9473847 479.93786826 -2425.64477539 478.3996582 C-2419.84022592 471.55769203 -2413.44371367 465.29336282 -2407.09399414 458.96362305 C-2405.0673702 456.94235732 -2403.04614453 454.91580426 -2401.02539062 452.88867188 C-2389.56870754 441.42616479 -2389.56870754 441.42616479 -2383.6315918 436.39086914 C-2381.48061323 434.55724279 -2379.43917381 432.61927215 -2377.38647461 430.67724609 C-2371.32040468 424.9492143 -2364.98935859 419.72506394 -2358.3828125 414.63671875 C-2355.28111491 412.24185872 -2352.29304802 409.73217401 -2349.3125 407.1875 C-2327.03793816 388.56690172 -2302.1494161 372.44604095 -2277 358 C-2276.27651367 357.58379395 -2275.55302734 357.16758789 -2274.80761719 356.73876953 C-2269.57946051 353.74871792 -2264.30062549 350.85920694 -2259 348 C-2258.09749512 347.50918945 -2257.19499023 347.01837891 -2256.26513672 346.51269531 C-2184.86308838 307.8421073 -2105.20275687 287.5649603 -1979.875 273.3125 C-1979.05960754 273.25156158 -1978.24421509 273.19062317 -1977.40411377 273.12783813 C-1950.73434588 271.16427251 -1924.10356531 270.79387391 -1897.375 270.8125 C-1896.51515629 270.81276688 -1895.65531258 270.81303375 -1894.76941299 270.81330872 C-1866.46674874 270.82431323 -1838.25471982 271.22264858 -1810 273 C-1808.94125671 273.06552063 -1807.88251343 273.13104126 -1806.79168701 273.19854736 C-1758.2265312 276.21601119 -1709.77682507 280.49304127 -1661.3828125 285.5234375 C-1660.57439329 285.60731736 -1659.76597407 285.69119721 -1658.93305731 285.77761889 C-1619.95599446 289.82281119 -1581.0211683 294.22980774 -1542.08746499 298.67000729 C-1520.61593334 301.11864572 -1499.14213922 303.54728197 -1477.66796875 305.97265625 C-1476.17035425 306.14182717 -1476.17035425 306.14182717 -1474.6424849 306.31441569 C-1386.08045242 316.31731242 -1297.45436691 325.69676909 -1128 337 C-1126.98744141 337.04985046 -1125.97488281 337.09970093 -1124.93164062 337.15106201 C-1067.66808091 339.95035431 -1010.30751532 340.72746942 -953 339 C-952.03539856 338.9720636 -951.07079712 338.9441272 -950.07696533 338.91534424 C-871.33421519 336.61111738 -791.00101897 328.64570583 -716.0625 303.125 C-715.36702057 302.89002808 -714.67154114 302.65505615 -713.95498657 302.41296387 C-711.99845187 301.74739438 -710.04730982 301.06824409 -708.09765625 300.3828125 C-706.98914307 299.99496582 -705.88062988 299.60711914 -704.73852539 299.20751953 C-699.48943677 296.89299762 -697.88760179 293.11547915 -695.5 288.125 C-694.78252864 286.66864022 -694.06371028 285.21294348 -693.34375 283.7578125 C-692.16535915 281.3661966 -690.98742139 278.97437729 -689.8125 276.58105469 C-676.04437661 248.74693984 -657.02344487 218.36067749 -633 198 C-632.34 198 -631.68 198 -631 198 C-630.98541748 198.95551758 -630.97083496 199.91103516 -630.95581055 200.89550781 C-631.12600468 247.5901957 -631.12600468 247.5901957 -610.625 288.0625 C-603.50872695 294.61379867 -595.70041055 297.38291094 -586 297 C-582.7236732 296.82878789 -579.97734291 296.42471573 -577 295 C-574.59326065 292.19873819 -573.23437947 289.04811594 -571.75 285.6875 C-570.82596053 283.77007258 -569.89473209 281.8560961 -568.95703125 279.9453125 C-568.47830566 278.96079102 -567.99958008 277.97626953 -567.50634766 276.96191406 C-560.70664803 263.59174293 -552.0236638 250.96476279 -543 239 C-542.58073242 238.43796875 -542.16146484 237.8759375 -541.72949219 237.296875 C-534.45584274 227.59138933 -526.41618803 218.72351282 -518 210 C-516.86884766 208.79730469 -516.86884766 208.79730469 -515.71484375 207.5703125 C-514 206 -514 206 -512 206 C-512.01160156 206.99515625 -512.02320312 207.9903125 -512.03515625 209.015625 C-512.27918859 238.56148179 -512.44088517 276.03952418 -491.12890625 299.2109375 C-483.28488941 305.80279018 -474.93271631 308.16554527 -465 308 C-464.48783936 306.87694458 -464.48783936 306.87694458 -463.96533203 305.73120117 C-446.9699506 268.55487185 -428.29505778 233.1528919 -399 204 C-398.25919189 203.25532471 -398.25919189 203.25532471 -397.50341797 202.49560547 C-367.99353299 173.14528729 -329.27187711 159.7106419 -288.15185547 159.75341797 C-260.68105741 160.04291822 -234.22074013 166.21241194 -208.125 174.375 C-207.42312561 174.59357666 -206.72125122 174.81215332 -205.99810791 175.03735352 C-184.3932205 181.81182647 -163.59538917 190.56140414 -142.8125 199.5 C-141.57050488 200.0328788 -140.32846956 200.56566393 -139.08639526 201.09835815 C-121.12940098 208.80450399 -103.34812103 216.81212005 -85.73243713 225.26957703 C-75.03613962 230.39361509 -64.20983632 235.2407196 -53.39674377 240.11195374 C-49.05385437 242.06904417 -44.71783296 244.04053174 -40.38577271 246.02146912 C45.00332172 285.03326825 149.88943481 331.76648342 250.859375 304.00292969 C257.31817982 301.578672 263.82424232 299.08787884 270 296 C268.74062622 295.84966309 268.74062622 295.84966309 267.45581055 295.69628906 C234.78613537 291.75420636 234.78613537 291.75420636 220 288 C218.94167969 287.73203613 217.88335938 287.46407227 216.79296875 287.18798828 C153.28801834 270.86142358 94.7807166 239.57031301 38.74839783 206.1975708 C33.45272315 203.04380661 28.147622 199.90754766 22.82421875 196.80078125 C22.22715118 196.4522963 21.63008362 196.10381134 21.0149231 195.74476624 C19.80447086 195.03835851 18.59401145 194.33196307 17.38354492 193.62557983 C7.1565505 187.6553199 -3.01395681 181.60215058 -13.125 175.4375 C-42.05374764 157.8027521 -71.18959089 140.4683778 -101.1015625 124.54541016 C-103.93753061 123.03330789 -106.76565135 121.50722496 -109.59375 119.98046875 C-170.30703954 87.46365311 -241.14902336 61.21982223 -310 81 C-323.75162435 85.21748573 -337.54380719 90.91294253 -349.29296875 99.33203125 C-350.18628906 99.88246094 -351.07960937 100.43289062 -352 101 C-352.99 100.67 -353.98 100.34 -355 100 C-329.45448954 54.30661858 -301.17773691 7.29142009 -258 -24 C-257.16855469 -24.62648438 -256.33710938 -25.25296875 -255.48046875 -25.8984375 C-180.77084011 -80.66071919 -90.51143 -49.99762384 0 0 Z " fill="#9B6036" transform="translate(4941,3279)"/>
<path d="M0 0 C41.91 0 83.82 0 127 0 C127 1.65 127 3.3 127 5 C125.53240234 5.12955078 125.53240234 5.12955078 124.03515625 5.26171875 C112.63652577 6.48340088 105.23050904 8.89587261 97.5078125 17.64453125 C92.7578089 25.06487367 92.55708896 31.98653144 92.56762695 40.56640625 C92.55735316 41.82621811 92.54707937 43.08602997 92.53649426 44.38401794 C92.51164612 47.77117543 92.49943547 51.15789511 92.49352264 54.54510498 C92.48524455 57.73131382 92.4608655 60.91738367 92.43786621 64.10351562 C92.38001781 73.40225771 92.34780256 82.70114499 92.3125 92 C92.1578125 123.185 92.1578125 123.185 92 155 C146.12 155 200.24 155 256 155 C255.67 154.01 255.34 153.02 255 152 C254.90664773 150.30521209 254.87102783 148.60697757 254.86869812 146.90962219 C254.86268585 145.33050301 254.86268585 145.33050301 254.85655212 143.71948242 C254.8573452 141.98722412 254.8573452 141.98722412 254.8581543 140.2199707 C254.85467987 139.00343307 254.85120544 137.78689545 254.84762573 136.53349304 C254.84026397 133.88652814 254.83459293 131.23961353 254.83133507 128.59264565 C254.82541829 124.40215064 254.80887034 120.21174027 254.78999329 116.02128601 C254.78365584 114.58557992 254.77733022 113.14987378 254.77101612 111.71416759 C254.76785031 110.99512922 254.7646845 110.27609084 254.76142275 109.53526342 C254.71938553 99.78076691 254.68638834 90.02630956 254.67407227 80.27172852 C254.66567772 73.69066402 254.64313436 67.109809 254.6047166 60.5288493 C254.58499977 57.04875871 254.57253658 53.56898094 254.57755089 50.08883095 C254.58308373 46.20134996 254.55773055 42.31439501 254.5300293 38.42700195 C254.53663071 37.28228424 254.54323212 36.13756653 254.55003357 34.9581604 C254.44643096 26.09298253 252.34583713 19.52211039 246 13 C237.94482278 6.93658433 229.86457397 5.67785499 220 5 C220 3.35 220 1.7 220 0 C262.24 0 304.48 0 348 0 C348 1.65 348 3.3 348 5 C347.03320312 5.08636719 346.06640625 5.17273437 345.0703125 5.26171875 C335.34475515 6.3113086 326.68306961 7.76164016 319.625 15.1875 C313.87420716 22.95901744 312.40800907 30.82497089 312.49206543 40.30957031 C312.48582547 41.40545094 312.4795855 42.50133156 312.47315645 43.63042068 C312.45728049 47.27987835 312.46981017 50.92866311 312.48242188 54.578125 C312.47699839 57.2037393 312.46987447 59.82935055 312.46118164 62.45495605 C312.44344517 68.83248376 312.44721452 75.20982258 312.4588322 81.58735752 C312.46788553 86.77297572 312.46908234 91.95854119 312.46473694 97.14416504 C312.46381754 98.25349707 312.46381754 98.25349707 312.46287957 99.38523984 C312.4616006 100.8878832 312.46030374 102.39052655 312.4589892 103.89316988 C312.44759768 117.96571635 312.46067463 132.03815839 312.48219067 146.11068773 C312.50006038 158.17150034 312.49695586 170.23215892 312.47851562 182.29296875 C312.45708361 196.31700041 312.44869619 210.34094067 312.46096468 224.36498642 C312.4622388 225.86193592 312.46349629 227.35888543 312.46473694 228.85583496 C312.46535404 229.59225951 312.46597114 230.32868407 312.46660694 231.08742452 C312.47005286 236.26358701 312.4642479 241.43969126 312.45481873 246.61584473 C312.44239384 253.58942769 312.45130778 260.56271567 312.47439575 267.53627014 C312.47967656 270.09281431 312.47817989 272.649383 312.46934509 275.20591736 C312.45838187 278.70108267 312.47216423 282.19532298 312.49206543 285.69042969 C312.48314254 286.69725422 312.47421966 287.70407875 312.46502638 288.74141312 C312.55432818 296.85138376 314.08611673 304.17407617 320 310 C320 310.66 320 311.32 320 312 C320.56976562 312.27714844 321.13953125 312.55429687 321.7265625 312.83984375 C323.2061014 313.59486618 324.66230322 314.39812609 326.0859375 315.25390625 C333.23839874 319.34277061 339.85204561 319.87085375 348 320 C348 321.98 348 323.96 348 326 C305.76 326 263.52 326 220 326 C220 324.02 220 322.04 220 320 C220.89460938 319.98582031 221.78921875 319.97164062 222.7109375 319.95703125 C233.46271697 319.53292055 240.81728797 317.62632903 248.4375 309.8125 C255.26666317 302.3560233 255.44471761 292.2484801 255.43237305 282.66552734 C255.44264684 281.45503534 255.45292063 280.24454334 255.46350574 278.99736977 C255.49320397 275.11017373 255.5029062 271.22323093 255.51171875 267.3359375 C255.52719758 264.92357511 255.54399671 262.51122082 255.56213379 260.09887695 C255.61990006 251.19100725 255.65217716 242.28298697 255.6875 233.375 C255.790625 213.45125 255.89375 193.5275 256 173 C201.88 173 147.76 173 92 173 C92.04125 193.3775 92.0825 213.755 92.125 234.75 C92.12258301 241.16663086 92.12016602 247.58326172 92.11767578 254.19433594 C92.14423409 259.98345119 92.14423409 259.98345119 92.17868042 265.77252197 C92.19317103 269.00645353 92.18584402 272.23959088 92.17143071 275.47349715 C92.16545592 278.7035275 92.19935872 281.93319592 92.22705078 285.16308594 C92.21483049 286.29095394 92.20261021 287.41882195 92.19001961 288.58086777 C92.33076191 297.5863442 94.77227018 305.84661607 101.34659004 312.30532455 C107.39945477 317.27585563 112.46795686 319.18511908 120.3125 319.625 C121.56675781 319.69976562 122.82101563 319.77453125 124.11328125 319.8515625 C125.06589844 319.90054688 126.01851562 319.94953125 127 320 C127 321.98 127 323.96 127 326 C85.09 326 43.18 326 0 326 C0 324.02 0 322.04 0 320 C0.83402344 319.97421875 1.66804688 319.9484375 2.52734375 319.921875 C11.49650461 319.46982107 19.82159486 318.09938076 26.59739113 311.66013813 C36.42777127 300.02482822 34.83712956 286.39431658 34.74462891 271.99536133 C34.74948943 269.34808763 34.75670097 266.70091455 34.76675415 264.05366516 C34.78564908 257.63119254 34.77260364 251.20917202 34.74822827 244.78673319 C34.72087551 237.29874236 34.72427372 229.81085707 34.72849493 222.32282897 C34.73486251 208.95934892 34.71160726 195.59608268 34.67236328 182.23266602 C34.63433716 169.2804514 34.62019563 156.32848715 34.63134766 143.3762207 C34.64347461 129.24999094 34.64309011 115.123871 34.62037599 100.99765033 C34.61796155 99.49035848 34.61554958 97.98306662 34.61314011 96.47577477 C34.61193303 95.73427125 34.61072595 94.99276774 34.6094823 94.22879443 C34.60173889 89.01507912 34.60250533 83.80140482 34.6063118 78.58768654 C34.61056432 72.23220108 34.6000422 65.87693434 34.57108469 59.5215104 C34.55663971 56.28179531 34.55055884 53.04246115 34.55757141 49.80271149 C34.5640293 46.28538548 34.54581747 42.76901324 34.52139282 39.25178528 C34.52895147 38.23563025 34.53651012 37.21947522 34.54429781 36.17252761 C34.42844258 26.7264689 31.38313741 19.58344142 24.890625 12.72265625 C17.83238688 6.29149301 9.11884065 5.90238527 0 5 C0 3.35 0 1.7 0 0 Z " fill="#9B6036" transform="translate(2658,4073)"/>
<path d="M0 0 C2.5390625 -0.44140625 2.5390625 -0.44140625 6 0 C8.78891143 2.03521388 11.04317603 4.5275971 13.375 7.0625 C14.63014071 8.38925144 15.88795805 9.71347583 17.1484375 11.03515625 C17.69677246 11.6269165 18.24510742 12.21867676 18.81005859 12.82836914 C20.69200969 14.69458485 22.61307957 16.40480634 24.62332153 18.12828064 C29.00509361 21.95101381 33.12116924 25.99396412 37.21679688 30.11914062 C38.3843325 31.28886665 38.3843325 31.28886665 39.57545471 32.48222351 C41.25215386 34.16270537 42.92769761 35.84434068 44.60218811 37.52702332 C47.25741578 40.19510293 49.91583197 42.85996889 52.57507324 45.52404785 C58.69816102 51.65948705 64.81656876 57.79958365 70.93473053 63.93993378 C76.99592336 70.02299455 83.05913114 76.10403348 89.12574768 82.1816864 C91.73559931 84.79798651 94.34240327 87.41729699 96.94909668 90.03674316 C98.56031614 91.6515976 100.17167754 93.26631043 101.78320312 94.88085938 C102.49928238 95.60210495 103.21536163 96.32335052 103.95314026 97.06645203 C107.84356071 100.95727521 111.84195789 104.63842842 116.0066452 108.23249054 C119.52373126 111.35109386 122.81439969 114.69254232 126.125 118.02734375 C126.89360352 118.79740753 127.66220703 119.56747131 128.45410156 120.36087036 C130.10952005 122.02007108 131.76378314 123.68042521 133.41699219 125.34182739 C136.03861386 127.97630318 138.66342578 130.60756325 141.2890625 133.23803711 C147.33474534 139.29607016 153.37574831 145.35876204 159.41650391 151.42170715 C165.40116545 157.42823831 171.38784325 163.43274659 177.37792969 169.43386841 C179.95454318 172.01692943 182.52810829 174.603001 185.1015625 177.18920898 C186.69255894 178.78384047 188.28369737 180.37833031 189.875 181.97265625 C190.93509277 183.0404985 190.93509277 183.0404985 192.01660156 184.12991333 C195.23120353 187.34485223 198.47978182 190.45911317 201.92578125 193.42578125 C206.61049773 197.4689558 210.95246214 201.82708507 215.3125 206.21484375 C216.16682617 207.07058487 217.02115234 207.92632599 217.90136719 208.80799866 C220.60328862 211.51547381 223.30169359 214.22642254 226 216.9375 C227.84221577 218.78473675 229.68466143 220.63174427 231.52734375 222.47851562 C236.02089061 226.98303003 240.5115632 231.49039405 245 236 C245.11687042 209.70485011 245.20500652 183.40973922 245.25906086 157.11438179 C245.28482783 144.90461666 245.31994982 132.69501303 245.37719727 120.48535156 C245.42707805 109.84175821 245.45930196 99.19828184 245.47044247 88.55457485 C245.47695323 82.92026019 245.49222447 77.28628017 245.52865028 71.65207291 C245.56268333 66.34478104 245.57303807 61.03796047 245.56553841 55.73056984 C245.56690967 53.78677494 245.57679833 51.84296366 245.59602737 49.89926338 C245.78669138 34.21654802 245.78669138 34.21654802 238.11867237 20.88435555 C230.14362386 12.8400589 219.76239761 12.48919989 209 12 C208.67 10.35 208.34 8.7 208 7 C249.91 7 291.82 7 335 7 C334.67 8.65 334.34 10.3 334 12 C333.16597656 12.03738281 332.33195312 12.07476563 331.47265625 12.11328125 C320.46359811 12.7564221 313.1116124 14.07355055 304.94921875 21.80859375 C300.26482357 27.07501799 297.87574251 33.17139758 297.87415886 40.20899963 C297.87155111 41.04616138 297.86894336 41.88332314 297.86625659 42.74585342 C297.86848732 43.66060314 297.87071804 44.57535286 297.87301636 45.51782227 C297.87067637 46.98176989 297.87067637 46.98176989 297.86828911 48.47529221 C297.86429114 51.75567878 297.86746439 55.03601931 297.87060547 58.31640625 C297.86925069 60.66562426 297.86747032 63.01484206 297.86529541 65.36405945 C297.86072426 71.76013201 297.86251093 78.1561885 297.8656745 84.55226135 C297.86745313 88.55799387 297.86711654 92.56372529 297.86618423 96.56945801 C297.866031 97.23524459 297.86587777 97.90103117 297.86571989 98.5869931 C297.86540013 99.93997749 297.86507592 101.29296188 297.8647473 102.64594626 C297.86189265 115.34981411 297.86517655 128.05367475 297.87054767 140.75754142 C297.87499104 151.60057163 297.87426027 162.44359109 297.86962891 173.28662109 C297.86424004 185.90881432 297.86219321 198.53100117 297.86524117 211.15319538 C297.86555966 212.50845146 297.86587403 213.86370754 297.86618423 215.21896362 C297.86633851 215.88552253 297.86649279 216.55208143 297.86665174 217.23883909 C297.8675059 221.87896442 297.86602731 226.51908548 297.86370468 231.15921021 C297.28113997 276.63316643 297.28113997 276.63316643 300.5 321.9375 C300.63019531 323.05705078 300.76039063 324.17660156 300.89453125 325.33007812 C301.44055683 329.9326877 302.04482565 334.46240942 303 339 C299.31184897 339.37202394 297.56135419 339.41088299 294.51806641 337.18334961 C293.32189697 335.93050171 293.32189697 335.93050171 292.1015625 334.65234375 C291.20953125 333.73646484 290.3175 332.82058594 289.3984375 331.87695312 C288.47328381 330.89777229 287.54880803 329.91795051 286.625 328.9375 C284.80703422 327.04851994 282.98675885 325.16175964 281.1640625 323.27734375 C280.36436035 322.43421631 279.5646582 321.59108887 278.74072266 320.72241211 C276.63539897 318.63115392 274.52621294 316.70205325 272.27914429 314.77418518 C268.28793959 311.29611574 264.51947944 307.64853114 260.79296875 303.890625 C260.12190094 303.21809692 259.45083313 302.54556885 258.75942993 301.85266113 C257.3168177 300.40627216 255.87536071 298.95873019 254.43496704 297.51013184 C252.14940713 295.21169248 249.86063672 292.91649291 247.57104492 290.62207031 C241.88788781 284.925614 236.21020913 279.22370741 230.53234863 273.52197266 C225.7239539 268.69378244 220.91347257 263.86768926 216.10025024 259.04431152 C213.8560172 256.79364201 211.61484077 254.53995969 209.3737793 252.28613281 C207.98501306 250.8937308 206.5961044 249.50147082 205.20703125 248.109375 C204.28719955 247.18179382 204.28719955 247.18179382 203.3487854 246.23547363 C199.68445488 242.57070411 195.88663702 239.13069169 191.96725464 235.7414093 C188.81193326 232.94832604 185.85080302 229.97383475 182.88476562 226.98242188 C182.22345139 226.31964737 181.56213715 225.65687286 180.88078308 224.97401428 C179.45945143 223.54890652 178.03927499 222.12264582 176.62016296 220.69532776 C174.36820944 218.43049183 172.11304304 216.1688985 169.85705566 213.90808105 C164.25737327 208.29510128 158.66317057 202.67667041 153.06878662 197.05841064 C148.33085293 192.30067941 143.59083125 187.54504678 138.84806824 182.79212952 C136.63707313 180.57469922 134.42913559 178.35425586 132.22131348 176.13366699 C130.85277027 174.76148793 129.48408459 173.38945093 128.11523438 172.01757812 C127.20942879 171.10402306 127.20942879 171.10402306 126.2853241 170.17201233 C123.39605557 167.28239264 120.46424012 164.50947063 117.3560791 161.8560791 C111.3355218 156.6472199 105.80067431 150.92377842 100.1875 145.28515625 C98.96604016 144.06182777 97.74435671 142.83872252 96.52246094 141.61582947 C93.3310039 138.42058239 90.14256333 135.22234214 86.95477295 132.0234375 C83.69174138 128.75011567 80.42582256 125.47967726 77.16015625 122.20898438 C70.77063203 115.80878491 64.38429549 109.40541493 58 103 C57.90650252 129.16478613 57.83599417 155.32954717 57.79275131 181.49446678 C57.77213802 193.64366622 57.74404083 205.79276178 57.69824219 217.94189453 C57.65833687 228.53274977 57.63255823 239.12352977 57.62364602 249.71445811 C57.61843758 255.32077452 57.60622122 260.92687568 57.57707977 266.53312302 C57.54985246 271.81410575 57.54156985 277.09478534 57.54756927 282.3758316 C57.54647232 284.30994186 57.53856224 286.24406265 57.5231781 288.17811203 C57.21499673 304.0951695 57.21499673 304.0951695 64.4375 317.875 C65.283125 318.57625 66.12875 319.2775 67 320 C67.804375 320.721875 68.60875 321.44375 69.4375 322.1875 C74.700314 325.9099782 80.13839487 326.35433359 86.375 326.625 C87.11105469 326.66367187 87.84710937 326.70234375 88.60546875 326.7421875 C90.40327406 326.83557998 92.20160108 326.9188371 94 327 C94 328.98 94 330.96 94 333 C52.75 333 11.5 333 -31 333 C-31 331.02 -31 329.04 -31 327 C-29.96101563 326.98582031 -28.92203125 326.97164062 -27.8515625 326.95703125 C-18.42745207 326.69229634 -10.44993759 325.98512415 -3.16796875 319.32421875 C2.62761316 312.96458994 5.12336895 306.34179669 5.12698364 297.78652954 C5.12980693 296.75183564 5.13263021 295.71714174 5.13553905 294.65109348 C5.13351136 293.52180392 5.13148367 292.39251436 5.12939453 291.22900391 C5.13111569 290.02521811 5.13283686 288.82143232 5.13461018 287.58116817 C5.13820919 284.2494961 5.13725698 280.91788404 5.13418651 277.58621526 C5.13233199 274.7387834 5.13408468 271.89135834 5.13586229 269.04392678 C5.14164099 259.71492458 5.1353273 250.38594676 5.12700987 241.05694818 C5.12433753 237.82341465 5.12249846 234.58988089 5.12067896 231.35634679 C5.10692539 207.23750145 5.06480118 183.11876106 5 159 C4.9968074 157.80416054 4.9968074 157.80416054 4.9935503 156.58416271 C4.93752255 135.79485193 4.85060654 115.00591744 4.72280884 94.21692348 C4.69419528 89.46236034 4.6726208 84.70779827 4.65411377 79.95318604 C4.62832327 73.54434723 4.58806707 67.13575324 4.53693962 60.72706795 C4.52056471 58.4112135 4.50876842 56.09532048 4.50235176 53.77941704 C4.45382137 37.99262119 3.20882977 22.63145492 1 7 C0.89487783 6.25418734 0.78975567 5.50837467 0.68144798 4.73996162 C0.45690205 3.15960232 0.22896827 1.57972464 0 0 Z " fill="#9B6036" transform="translate(3614,4066)"/>
<path d="M0 0 C2.47509766 -0.49047852 2.47509766 -0.49047852 6 0 C9.13866089 2.27210518 11.72563305 5.05383823 14.3984375 7.84765625 C15.19222809 8.6523082 15.98601868 9.45696014 16.80386353 10.28599548 C19.34207435 12.86439815 21.85894151 15.46249272 24.375 18.0625 C26.88802139 20.63318384 29.4052783 23.19962514 31.92471313 25.76402283 C33.48991854 27.36000301 35.0507193 28.96031934 36.60629272 30.56568909 C37.32709015 31.30592819 38.04788757 32.0461673 38.79052734 32.80883789 C39.41196625 33.45059464 40.03340515 34.09235138 40.67367554 34.7535553 C42.65157493 36.66353891 44.66879025 38.45961428 46.74954224 40.25450134 C51.09392245 44.03011152 55.16286302 48.03595872 59.21679688 52.11914062 C59.99515396 52.89895798 60.77351105 53.67877533 61.57545471 54.48222351 C63.25215386 56.16270537 64.92769761 57.84434068 66.60218811 59.52702332 C69.25741578 62.19510293 71.91583197 64.85996889 74.57507324 67.52404785 C80.69816102 73.65948705 86.81656876 79.79958365 92.93473053 85.93993378 C98.99592336 92.02299455 105.05913114 98.10403348 111.12574768 104.1816864 C113.73559931 106.79798651 116.34240327 109.41729699 118.94909668 112.03674316 C120.56031614 113.6515976 122.17167754 115.26631043 123.78320312 116.88085938 C124.49928238 117.60210495 125.21536163 118.32335052 125.95314026 119.06645203 C129.84356071 122.95727521 133.84195789 126.63842842 138.0066452 130.23249054 C141.52373126 133.35109386 144.81439969 136.69254232 148.125 140.02734375 C148.89360352 140.79740753 149.66220703 141.56747131 150.45410156 142.36087036 C152.10952005 144.02007108 153.76378314 145.68042521 155.41699219 147.34182739 C158.03861386 149.97630318 160.66342578 152.60756325 163.2890625 155.23803711 C169.33474534 161.29607016 175.37574831 167.35876204 181.41650391 173.42170715 C187.40116545 179.42823831 193.38784325 185.43274659 199.37792969 191.43386841 C201.95454318 194.01692943 204.52810829 196.603001 207.1015625 199.18920898 C208.69255894 200.78384047 210.28369737 202.37833031 211.875 203.97265625 C212.93509277 205.0404985 212.93509277 205.0404985 214.01660156 206.12991333 C217.23741294 209.3510623 220.49284664 212.47048379 223.9453125 215.44311523 C228.52008538 219.38841545 232.75424559 223.64391646 237 227.9375 C237.77472656 228.71673828 238.54945312 229.49597656 239.34765625 230.29882812 C241.23410757 232.1969242 243.11816245 234.09733149 245 236 C245.14031153 209.86980069 245.2460405 183.73965804 245.31087303 157.60915756 C245.34177929 145.47563821 245.38389833 133.34235326 245.45263672 121.20898438 C245.51253729 110.6305609 245.55117261 100.05230724 245.56453097 89.47371888 C245.57233661 83.87504438 245.59061468 78.27685557 245.63438034 72.6783371 C245.67528951 67.40217285 245.68763204 62.12669156 245.67864609 56.85038376 C245.68028855 54.92031765 245.69211386 52.99022726 245.71523285 51.06029892 C245.83859454 40.22530129 245.68000877 31.14242933 239 22 C230.63647004 13.49761605 220.43321641 12.51246256 209 12 C208.67 10.35 208.34 8.7 208 7 C249.58 7 291.16 7 334 7 C334 8.65 334 10.3 334 12 C333.18917969 12.02578125 332.37835938 12.0515625 331.54296875 12.078125 C322.21775956 12.55578414 311.67464478 13.75324281 305 21 C300.88171833 27.05093965 297.87814698 32.04293153 297.87136555 39.46167088 C297.8681411 40.35518365 297.86491665 41.24869643 297.8615945 42.16928536 C297.8631431 43.14697237 297.8646917 44.12465938 297.86628723 45.13197327 C297.86402167 46.17398075 297.86175612 47.21598823 297.85942191 48.2895717 C297.8530747 51.79340076 297.85391179 55.29719121 297.85473633 58.80102539 C297.85174491 61.30949962 297.84834243 63.81797338 297.84455872 66.32644653 C297.83662478 72.44574587 297.83350342 78.565031 297.83294634 84.684335 C297.83247054 89.67066093 297.83041258 94.65698371 297.82724571 99.64330864 C297.81842999 113.81532462 297.81382664 127.98733303 297.81457619 142.15935177 C297.81461614 142.92362848 297.8146561 143.68790519 297.81469727 144.4753418 C297.81473815 145.24056664 297.81477903 146.00579147 297.81482115 146.79420494 C297.81522572 159.13648892 297.8057064 171.47874211 297.7915589 183.82101721 C297.77710981 196.52826584 297.77029367 209.23549956 297.77115268 221.94275659 C297.77148219 229.06245275 297.76884559 236.18211681 297.75797462 243.3018055 C297.74777979 250.02165794 297.74829101 256.74143236 297.75549126 263.46129227 C297.7565238 265.90588035 297.75425518 268.35047285 297.7481308 270.79505348 C297.69464059 293.65920136 299.21180765 316.30886011 302 339 C298.57276525 339.44663611 297.28464047 339.20624163 294.440979 337.14581299 C293.52749695 336.26657166 292.61401489 335.38733032 291.67285156 334.48144531 C291.15901035 333.99180927 290.64516914 333.50217323 290.11575699 332.99769974 C288.39510376 331.34690868 286.6960599 329.67603319 285 328 C284.40736862 327.4181041 283.81473724 326.83620819 283.20414734 326.23667908 C279.23775803 322.33587328 275.30445238 318.40297805 271.38243866 314.45760345 C269.18062172 312.2428048 266.97550493 310.03133667 264.76959229 307.82061768 C260.09354084 303.13325182 255.42147514 298.44192608 250.75 293.75 C245.31591084 288.29219946 239.88014044 282.83609467 234.44013214 277.38419342 C232.28008852 275.2177245 230.12310527 273.04824109 227.96624756 270.87860107 C226.63096822 269.53968646 225.29554674 268.20091359 223.95996094 266.86230469 C223.07760773 265.972202 223.07760773 265.972202 222.1774292 265.06411743 C219.21066145 262.09698005 216.18375306 259.25495079 213.00970459 256.50970459 C209.13351873 253.15603486 205.49249901 249.62102067 201.88476562 245.98242188 C201.22345139 245.31964737 200.56213715 244.65687286 199.88078308 243.97401428 C198.45945143 242.54890652 197.03927499 241.12264582 195.62016296 239.69532776 C193.36820944 237.43049183 191.11304304 235.1688985 188.85705566 232.90808105 C183.25737327 227.29510128 177.66317057 221.67667041 172.06878662 216.05841064 C167.33085293 211.30067941 162.59083125 206.54504678 157.84806824 201.79212952 C155.63707313 199.57469922 153.42913559 197.35425586 151.22131348 195.13366699 C149.85277027 193.76148793 148.48408459 192.38945093 147.11523438 191.01757812 C146.20942879 190.10402306 146.20942879 190.10402306 145.2853241 189.17201233 C142.27996035 186.16628331 139.21739558 183.28286027 136.00198364 180.50198364 C132.11669235 177.14152468 128.46881197 173.59724239 124.85302734 169.95068359 C124.18850052 169.2846965 123.52397369 168.61870941 122.83930969 167.93254089 C121.41142555 166.50088089 119.9846966 165.06806794 118.55903244 163.63419724 C116.29922278 161.36151362 114.0362074 159.09206532 111.77236938 156.82339478 C106.97042072 152.01007535 102.17242438 147.19282823 97.375 142.375 C91.80527432 136.78162368 86.23391352 131.18989648 80.65831375 125.60237503 C78.43504922 123.37265552 76.21483115 121.1399331 73.99472046 118.90707397 C72.6260237 117.53474327 71.25718556 116.16255357 69.88818359 114.79052734 C69.27712265 114.17430008 68.66606171 113.55807281 68.03648376 112.923172 C67.17058876 112.05717125 67.17058876 112.05717125 66.28720093 111.17367554 C65.5478383 110.43098199 65.5478383 110.43098199 64.79353905 109.67328453 C62.28656468 107.33439961 59.64650194 105.17971009 57 103 C56.95324787 128.38251009 56.91799539 153.76501371 56.89637566 179.14755821 C56.88606975 190.93351049 56.87202249 202.719436 56.84912109 214.50537109 C56.82916627 224.77979953 56.81627858 235.05420856 56.81182301 245.32865584 C56.80921919 250.76722784 56.80311327 256.20574436 56.78853989 261.64429855 C56.77492295 266.76763304 56.77078568 271.8908894 56.77378464 277.01424026 C56.77323631 278.890286 56.76928346 280.76633446 56.76158905 282.6423645 C56.39565459 302.82334981 56.39565459 302.82334981 66 320 C70.7692991 323.42733032 75.04376322 326.00230333 81.01171875 326.31640625 C81.76904297 326.35830078 82.52636719 326.40019531 83.30664062 326.44335938 C84.48516602 326.50233398 84.48516602 326.50233398 85.6875 326.5625 C86.48478516 326.60568359 87.28207031 326.64886719 88.10351562 326.69335938 C90.06881447 326.79927368 92.03438496 326.90012551 94 327 C94 328.98 94 330.96 94 333 C52.42 333 10.84 333 -32 333 C-32 331.02 -32 329.04 -32 327 C-30.88882813 326.98582031 -29.77765625 326.97164062 -28.6328125 326.95703125 C-18.9066688 326.70105131 -10.74467781 326.15548008 -3.171875 319.359375 C3.42750629 312.24742041 4.44203663 305.38890764 4.3742218 296.01132202 C4.38018341 294.36461185 4.38018341 294.36461185 4.38626546 292.6846348 C4.39588069 289.01016469 4.3840741 285.33608034 4.37231445 281.66162109 C4.37474287 279.02473416 4.3783466 276.38787262 4.38337708 273.75099182 C4.39285756 267.33128136 4.38626927 260.91168347 4.37411413 254.49198137 C4.36045892 246.99870308 4.36213549 239.50545129 4.36424746 232.01216371 C4.36743707 218.62201845 4.35577745 205.23192636 4.33618164 191.84179688 C4.31723109 178.88898087 4.31008019 165.93622732 4.31567383 152.98339844 C4.32175704 138.85528802 4.3215042 124.72720507 4.310188 110.59909689 C4.30898085 109.0864567 4.30777487 107.5738165 4.30657005 106.0611763 C4.30596651 105.31712229 4.30536298 104.57306827 4.30474115 103.80646717 C4.30088756 98.60246474 4.30124583 93.39847261 4.3031559 88.19446945 C4.30529741 81.82793088 4.2999096 75.46144654 4.28554235 69.09492312 C4.27838681 65.85586864 4.27524142 62.61690665 4.27878571 59.37784386 C4.29736528 39.34182141 2.86194661 19.82050262 0 0 Z " fill="#9B6036" transform="translate(4882,4066)"/>
<path d="M0 0 C1.65 0 3.3 0 5 0 C14.42932748 20.71958182 23.81426581 41.45600529 32.9375 62.3125 C39.20709561 76.64431297 45.51570508 90.95773635 51.875 105.25 C52.29095428 106.18494293 52.70690857 107.11988586 53.13546753 108.0831604 C55.24567907 112.82587065 57.35656062 117.56828227 59.46777344 122.31054688 C63.2330721 130.76914694 66.9923248 139.23043396 70.75201416 147.69152832 C72.83442657 152.37779645 74.9172333 157.06388932 77 161.75 C77.83333522 163.62499916 78.66666855 165.49999916 79.5 167.375 C80.11875 168.7671875 80.11875 168.7671875 80.75 170.1875 C84.49999999 178.62499997 84.49999999 178.62499997 85.74996948 181.43743896 C86.58339699 183.31264577 87.41683205 185.18784922 88.25027466 187.06304932 C90.33222902 191.7473577 92.4140526 196.43172412 94.49560547 201.11621094 C98.26184279 209.59169533 102.02899109 218.06676826 105.8011322 226.53962708 C107.49059194 230.33471136 109.17918183 234.13018249 110.86782837 237.92562866 C112.11490282 240.72731559 113.36345283 243.52834182 114.61206055 246.3293457 C118.79717452 255.72761504 122.93822079 265.14262322 127.01171875 274.58984375 C128.22459243 277.39206128 129.43805894 280.19402158 130.65155029 282.99597168 C131.77684472 285.60483733 132.88984812 288.21870655 134.00244141 290.83300781 C140.73862327 306.49368308 148.25839129 319.21542084 164.6171875 326.08984375 C168.58279808 327.60457697 171.95894923 328.24422198 176.1875 328.5625 C177.27417969 328.64628906 178.36085938 328.73007812 179.48046875 328.81640625 C180.31191406 328.87699219 181.14335937 328.93757813 182 329 C182 330.98 182 332.96 182 335 C137.78 335 93.56 335 48 335 C48 333.02 48 331.04 48 329 C48.70125 328.98582031 49.4025 328.97164062 50.125 328.95703125 C56.94016596 328.614421 61.79489835 327.55446394 67 323 C70.60588756 318.74690186 71.52358296 315.49633275 72 310 C69.9580231 296.75413661 63.3705617 283.64130886 58.5 271.25 C57.63614878 269.03798292 56.77286348 266.82574475 55.91015625 264.61328125 C52.31075567 255.39333669 48.6759487 246.18987174 45 237 C7.38 236.67 -30.24 236.34 -69 236 C-69.99 238.97 -70.98 241.94 -72 245 C-72.68225105 246.79031497 -73.38350209 248.5736413 -74.11303711 250.34521484 C-74.50031479 251.2900473 -74.88759247 252.23487976 -75.28660583 253.20834351 C-75.69604935 254.19919952 -76.10549286 255.19005554 -76.52734375 256.2109375 C-76.95753311 257.25972076 -77.38772247 258.30850403 -77.83094788 259.3890686 C-79.19701227 262.71886508 -80.56688023 266.0470763 -81.9375 269.375 C-83.30428494 272.69588861 -84.67014288 276.01714513 -86.03334045 279.33950806 C-86.87822425 281.39847752 -87.7251237 283.45662154 -88.57444763 285.51376343 C-90.52829543 290.27358532 -92.43677154 295.04883473 -94.25610352 299.86181641 C-94.57877701 300.71321198 -94.9014505 301.56460754 -95.23390198 302.44180298 C-96.82994532 307.77139947 -97.06836531 313.06568791 -95.15234375 318.328125 C-92.32083102 323.51123304 -88.63538029 326.3219952 -83 328 C-79.66756743 328.55619773 -76.37438802 328.86170541 -73 329 C-73 330.98 -73 332.96 -73 335 C-105.67 335 -138.34 335 -172 335 C-172 333.02 -172 331.04 -172 329 C-171.20078125 328.98582031 -170.4015625 328.97164062 -169.578125 328.95703125 C-157.63993475 328.43858872 -147.46872179 324.82184961 -138.5 316.75 C-131.83571732 309.41928905 -127.81146736 301.83541266 -123.875 292.75 C-123.30291604 291.44945766 -122.73006449 290.14925273 -122.15649414 288.84936523 C-120.42157297 284.9064945 -118.707539 280.95479445 -117 277 C-116.52320801 275.8960791 -116.04641602 274.7921582 -115.55517578 273.65478516 C-113.69903685 269.34506051 -111.8507227 265.03208466 -110.01098633 260.71533203 C-105.08540872 249.16029592 -100.07562362 237.64228081 -95.0625 226.125 C-94.18024847 224.09774141 -93.29800561 222.07047905 -92.41577148 220.04321289 C-91.12323108 217.07315566 -89.83067839 214.10310379 -88.53800964 211.13310242 C-85.1838475 203.42558788 -81.83918051 195.71401631 -78.5 188 C-72.79983623 174.83478748 -67.07983035 161.67823789 -61.35708618 148.52282715 C-56.27381306 136.83734803 -51.19597073 125.14954902 -46.12890625 113.45703125 C-44.64221972 110.0271091 -43.15547935 106.5972103 -41.66870117 103.16732788 C-40.68285314 100.89284549 -39.69717548 98.61828925 -38.71166992 96.34365845 C-33.04996724 83.27818164 -27.34661417 70.23342034 -21.55795288 57.22372437 C-13.23869631 38.50913886 -5.29538683 19.82443813 0 0 Z M-11 94 C-14.3592456 101.26042177 -17.52702979 108.57286477 -20.52734375 115.98828125 C-21.16039932 117.54467316 -21.16039932 117.54467316 -21.8062439 119.13250732 C-23.18554125 122.52494435 -24.56164249 125.91866659 -25.9375 129.3125 C-27.64618401 133.52107289 -29.35562861 137.72933664 -31.06513786 141.93757439 C-31.82503891 143.8085118 -32.58459764 145.67958793 -33.34413147 147.55067444 C-36.72224526 155.8701036 -40.11835544 164.18201775 -43.52533531 172.48966408 C-45.30008451 176.81855277 -47.07172274 181.14871613 -48.84402466 185.47860718 C-49.82029185 187.86123961 -50.79804675 190.24326302 -51.77731323 192.62466431 C-53.14334343 195.94735602 -54.50389222 199.2722431 -55.86328125 202.59765625 C-56.26952728 203.58167419 -56.67577332 204.56569214 -57.09432983 205.57952881 C-57.46450226 206.48793518 -57.83467468 207.39634155 -58.21606445 208.33227539 C-58.69944023 209.51026451 -58.69944023 209.51026451 -59.19258118 210.71205139 C-60.20350983 213.40487739 -60.20350983 213.40487739 -61 218 C-28.33 218 4.34 218 38 218 C32.97779909 203.73822702 32.97779909 203.73822702 27.6015625 189.625 C27.20924438 188.62752747 26.81692627 187.63005493 26.41271973 186.60235596 C25.1528135 183.40051279 23.88891706 180.20026173 22.625 177 C21.29217698 173.61561131 19.96039298 170.23081487 18.62863159 166.8460083 C17.73064357 164.5639297 16.83230798 162.28198783 15.93362427 160.00018311 C11.31009441 148.25848521 6.72581035 136.50157249 2.14874268 124.74169922 C-1.84832702 114.47301414 -5.88703013 104.22285752 -10 94 C-10.33 94 -10.66 94 -11 94 Z " fill="#9B6036" transform="translate(3291,4064)"/>
<path d="M0 0 C0 24.42 0 48.84 0 74 C-2.475 74.495 -2.475 74.495 -5 75 C-5.08636719 73.83984375 -5.17273437 72.6796875 -5.26171875 71.484375 C-6.34908237 58.71949296 -8.38613248 47.54372139 -17.64453125 37.97265625 C-30.7960155 26.95856082 -47.3591579 27.68856177 -63.546875 27.5859375 C-65.20264563 27.56896306 -66.8584078 27.55114215 -68.51416016 27.5324707 C-74.59267667 27.4697679 -80.67135222 27.4233305 -86.75 27.375 C-107.16875 27.189375 -107.16875 27.189375 -128 27 C-128 72.54 -128 118.08 -128 165 C-116.32625 164.896875 -104.6525 164.79375 -92.625 164.6875 C-88.95713379 164.66260498 -85.28926758 164.63770996 -81.51025391 164.61206055 C-78.18398296 164.57543902 -78.18398296 164.57543902 -74.85775757 164.5349884 C-73.3915787 164.51897979 -71.92533106 164.5085969 -70.45907593 164.50288391 C-57.66967988 164.44651554 -47.42618552 163.52055314 -37.4375 154.75 C-29.52168822 145.81934055 -27.56673072 137.74641146 -28 126 C-26.02 126 -24.04 126 -22 126 C-22 157.68 -22 189.36 -22 222 C-23.65 222 -25.3 222 -27 222 C-27.08636719 221.03320312 -27.17273437 220.06640625 -27.26171875 219.0703125 C-28.15763259 210.76872554 -29.45624763 204.18611913 -34 197 C-34.556875 196.0925 -35.11375 195.185 -35.6875 194.25 C-46.3958837 183.83103207 -59.11189926 183.6926645 -73.19140625 183.5859375 C-74.57223569 183.56896863 -75.95305492 183.55114829 -77.3338623 183.5324707 C-82.40995816 183.46970034 -87.48624592 183.4233093 -92.5625 183.375 C-103.926875 183.25125 -115.29125 183.1275 -127 183 C-127 226.89 -127 270.78 -127 316 C-115.285 315.896875 -103.57 315.79375 -91.5 315.6875 C-86.00182617 315.65015747 -86.00182617 315.65015747 -80.39257812 315.61206055 C-77.03580564 315.57539164 -77.03580564 315.57539164 -73.67907715 315.5349884 C-72.21232731 315.51909757 -70.74551115 315.50863698 -69.27868652 315.50288391 C-44.83549769 315.39455272 -21.83067443 309.70571344 -3.87890625 292.06640625 C8.48676072 279.27077292 16.68867202 262.4601971 23 246 C24.65 246 26.3 246 28 246 C27.4027349 251.57456374 26.41647226 256.8236016 24.97460938 262.23608398 C24.77124466 263.01593155 24.56787994 263.79577911 24.35835266 264.59925842 C23.69186747 267.14955765 23.01802062 269.69784286 22.34375 272.24609375 C21.87639946 274.02579206 21.40940458 275.80558381 20.94274902 277.58546448 C19.96751327 281.30059482 18.98875572 285.01477321 18.00732422 288.72827148 C16.74709846 293.49738118 15.49457822 298.26847361 14.24449921 303.04025173 C13.28290905 306.70822544 12.31789533 310.37529127 11.35176086 314.04207039 C10.88832745 315.80217256 10.42583245 317.56252208 9.96427917 319.32311821 C9.32138107 321.7728835 8.67403521 324.22142869 8.02539062 326.66967773 C7.83419144 327.40157318 7.64299225 328.13346863 7.44599915 328.88754272 C6.11437405 333.88562595 6.11437405 333.88562595 5 335 C2.10481411 335.09795178 -0.76652079 335.12992093 -3.66212463 335.12025452 C-5.04160519 335.12153615 -5.04160519 335.12153615 -6.44895405 335.12284368 C-9.55526277 335.1245013 -12.66151845 335.11897252 -15.76782227 335.11352539 C-17.98469034 335.11324355 -20.2015585 335.11340118 -22.41842651 335.1139679 C-28.45743901 335.11425601 -34.49643183 335.1083571 -40.53543973 335.10139394 C-46.83888733 335.09516264 -53.14233532 335.09455678 -59.44578552 335.09336853 C-70.03246395 335.09060883 -80.61913589 335.08435332 -91.20581055 335.07543945 C-102.11206018 335.06626603 -113.01830784 335.05918486 -123.92456055 335.05493164 C-124.59637183 335.05466892 -125.26818311 335.05440619 -125.96035231 335.05413551 C-129.33049769 335.05283051 -132.70064309 335.05156679 -136.0707885 335.05032361 C-164.04719739 335.03985771 -192.02359819 335.02225698 -220 335 C-220 333.02 -220 331.04 -220 329 C-219.10539062 328.98582031 -218.21078125 328.97164062 -217.2890625 328.95703125 C-208.94843446 328.62802993 -203.12858148 327.28515853 -196 323 C-194.93652344 322.54947266 -194.93652344 322.54947266 -193.8515625 322.08984375 C-191.50245156 320.70713921 -191.02907725 319.49265378 -190 317 C-189.65839844 316.32839844 -189.31679688 315.65679687 -188.96484375 314.96484375 C-188.62582031 314.29582031 -188.28679687 313.62679687 -187.9375 312.9375 C-187.59589844 312.26589844 -187.25429688 311.59429687 -186.90234375 310.90234375 C-185.35818325 307.64690582 -184.87410143 305.05978327 -184.86857224 301.50456905 C-184.86473109 300.57817967 -184.86088995 299.65179029 -184.8569324 298.69732851 C-184.85779888 297.67789598 -184.85866537 296.65846346 -184.85955811 295.60813904 C-184.85658698 294.52640649 -184.85361586 293.44467395 -184.8505547 292.33016163 C-184.84184764 288.68681552 -184.84035775 285.04350219 -184.83886719 281.40014648 C-184.83424035 278.79527211 -184.82921587 276.19039841 -184.82382202 273.58552551 C-184.81023439 266.4943505 -184.80421285 259.40318113 -184.79981136 252.31199527 C-184.79704875 247.88277552 -184.79281127 243.45355795 -184.78830719 239.02433968 C-184.77611222 226.75804373 -184.76581449 214.49174953 -184.7624321 202.22544765 C-184.76221253 201.44018405 -184.76199297 200.65492044 -184.76176675 199.84586096 C-184.76154847 199.05872369 -184.76133019 198.27158642 -184.7611053 197.4605965 C-184.76066183 195.8655767 -184.76021527 194.27055691 -184.75976562 192.67553711 C-184.75943348 191.48876123 -184.75943348 191.48876123 -184.75909463 190.27801008 C-184.75514967 177.46827469 -184.73770591 164.65859629 -184.7144061 151.84888291 C-184.69067044 138.69313301 -184.67822918 125.53741167 -184.67706418 112.38164002 C-184.67614848 104.99696854 -184.67042293 97.61237126 -184.65224457 90.22772026 C-184.63519742 83.27809773 -184.63360757 76.32861797 -184.64238358 69.37898064 C-184.64315411 66.83049645 -184.63880912 64.28200472 -184.62892532 61.73353958 C-184.61620612 58.24910805 -184.62208311 54.76517478 -184.63250732 51.28074646 C-184.62445092 50.27692899 -184.61639452 49.27311151 -184.60809398 48.23887533 C-184.67806708 38.20834313 -186.77830085 29.30302459 -194 22 C-201.82323962 15.75094884 -210.26921805 14.66866133 -220 14 C-220 12.35 -220 10.7 -220 9 C-219.13660287 8.99761165 -218.27320574 8.99522329 -217.38364506 8.99276257 C-196.26143864 8.93332436 -175.13934358 8.85759377 -154.01725864 8.76428509 C-143.80228782 8.71954223 -133.5873502 8.6800796 -123.37231445 8.65356445 C-114.45677247 8.63040844 -105.54133747 8.5968188 -96.62588066 8.55129844 C-91.9162217 8.52760047 -87.20666713 8.50871992 -82.49695015 8.50238609 C-54.80411311 8.46019339 -26.73612822 0 0 0 Z " fill="#9B6036" transform="translate(4690,4064)"/>
<path d="M0 0 C0 24.42 0 48.84 0 74 C-2.475 74.495 -2.475 74.495 -5 75 C-5.08636719 73.83984375 -5.17273437 72.6796875 -5.26171875 71.484375 C-6.34908237 58.71949296 -8.38613248 47.54372139 -17.64453125 37.97265625 C-30.7960155 26.95856082 -47.3591579 27.68856177 -63.546875 27.5859375 C-65.20264563 27.56896306 -66.8584078 27.55114215 -68.51416016 27.5324707 C-74.59267667 27.4697679 -80.67135222 27.4233305 -86.75 27.375 C-107.16875 27.189375 -107.16875 27.189375 -128 27 C-128 72.54 -128 118.08 -128 165 C-116.32625 164.896875 -104.6525 164.79375 -92.625 164.6875 C-88.95713379 164.66260498 -85.28926758 164.63770996 -81.51025391 164.61206055 C-78.18398296 164.57543902 -78.18398296 164.57543902 -74.85775757 164.5349884 C-73.3915787 164.51897979 -71.92533106 164.5085969 -70.45907593 164.50288391 C-57.66967988 164.44651554 -47.42618552 163.52055314 -37.4375 154.75 C-29.52168822 145.81934055 -27.56673072 137.74641146 -28 126 C-26.02 126 -24.04 126 -22 126 C-22 157.68 -22 189.36 -22 222 C-23.65 222 -25.3 222 -27 222 C-27.08636719 221.03320312 -27.17273437 220.06640625 -27.26171875 219.0703125 C-28.15763259 210.76872554 -29.45624763 204.18611913 -34 197 C-34.556875 196.0925 -35.11375 195.185 -35.6875 194.25 C-46.3958837 183.83103207 -59.11189926 183.6926645 -73.19140625 183.5859375 C-74.57223569 183.56896863 -75.95305492 183.55114829 -77.3338623 183.5324707 C-82.40995816 183.46970034 -87.48624592 183.4233093 -92.5625 183.375 C-103.926875 183.25125 -115.29125 183.1275 -127 183 C-127 226.89 -127 270.78 -127 316 C-115.285 315.896875 -103.57 315.79375 -91.5 315.6875 C-86.00182617 315.65015747 -86.00182617 315.65015747 -80.39257812 315.61206055 C-77.03580564 315.57539164 -77.03580564 315.57539164 -73.67907715 315.5349884 C-72.21232731 315.51909757 -70.74551115 315.50863698 -69.27868652 315.50288391 C-44.83549769 315.39455272 -21.83067443 309.70571344 -3.87890625 292.06640625 C8.48676072 279.27077292 16.68867202 262.4601971 23 246 C24.65 246 26.3 246 28 246 C27.4027349 251.57456374 26.41647226 256.8236016 24.97460938 262.23608398 C24.77124466 263.01593155 24.56787994 263.79577911 24.35835266 264.59925842 C23.69186747 267.14955765 23.01802062 269.69784286 22.34375 272.24609375 C21.87639946 274.02579206 21.40940458 275.80558381 20.94274902 277.58546448 C19.96751327 281.30059482 18.98875572 285.01477321 18.00732422 288.72827148 C16.74709846 293.49738118 15.49457822 298.26847361 14.24449921 303.04025173 C13.28290905 306.70822544 12.31789533 310.37529127 11.35176086 314.04207039 C10.88832745 315.80217256 10.42583245 317.56252208 9.96427917 319.32311821 C9.32138107 321.7728835 8.67403521 324.22142869 8.02539062 326.66967773 C7.83419144 327.40157318 7.64299225 328.13346863 7.44599915 328.88754272 C6.11437405 333.88562595 6.11437405 333.88562595 5 335 C2.10481411 335.09795178 -0.76652079 335.12992093 -3.66212463 335.12025452 C-5.04160519 335.12153615 -5.04160519 335.12153615 -6.44895405 335.12284368 C-9.55526277 335.1245013 -12.66151845 335.11897252 -15.76782227 335.11352539 C-17.98469034 335.11324355 -20.2015585 335.11340118 -22.41842651 335.1139679 C-28.45743901 335.11425601 -34.49643183 335.1083571 -40.53543973 335.10139394 C-46.83888733 335.09516264 -53.14233532 335.09455678 -59.44578552 335.09336853 C-70.03246395 335.09060883 -80.61913589 335.08435332 -91.20581055 335.07543945 C-102.11206018 335.06626603 -113.01830784 335.05918486 -123.92456055 335.05493164 C-124.59637183 335.05466892 -125.26818311 335.05440619 -125.96035231 335.05413551 C-129.33049769 335.05283051 -132.70064309 335.05156679 -136.0707885 335.05032361 C-164.04719739 335.03985771 -192.02359819 335.02225698 -220 335 C-220 333.02 -220 331.04 -220 329 C-219.10539062 328.98582031 -218.21078125 328.97164062 -217.2890625 328.95703125 C-208.94843446 328.62802993 -203.12858148 327.28515853 -196 323 C-194.93652344 322.54947266 -194.93652344 322.54947266 -193.8515625 322.08984375 C-191.50245156 320.70713921 -191.02907725 319.49265378 -190 317 C-189.65839844 316.32839844 -189.31679688 315.65679687 -188.96484375 314.96484375 C-188.62582031 314.29582031 -188.28679687 313.62679687 -187.9375 312.9375 C-187.59589844 312.26589844 -187.25429688 311.59429687 -186.90234375 310.90234375 C-185.35818325 307.64690582 -184.87410143 305.05978327 -184.86857224 301.50456905 C-184.86473109 300.57817967 -184.86088995 299.65179029 -184.8569324 298.69732851 C-184.85779888 297.67789598 -184.85866537 296.65846346 -184.85955811 295.60813904 C-184.85658698 294.52640649 -184.85361586 293.44467395 -184.8505547 292.33016163 C-184.84184764 288.68681552 -184.84035775 285.04350219 -184.83886719 281.40014648 C-184.83424035 278.79527211 -184.82921587 276.19039841 -184.82382202 273.58552551 C-184.81023439 266.4943505 -184.80421285 259.40318113 -184.79981136 252.31199527 C-184.79704875 247.88277552 -184.79281127 243.45355795 -184.78830719 239.02433968 C-184.77611222 226.75804373 -184.76581449 214.49174953 -184.7624321 202.22544765 C-184.76221253 201.44018405 -184.76199297 200.65492044 -184.76176675 199.84586096 C-184.76154847 199.05872369 -184.76133019 198.27158642 -184.7611053 197.4605965 C-184.76066183 195.8655767 -184.76021527 194.27055691 -184.75976562 192.67553711 C-184.75943348 191.48876123 -184.75943348 191.48876123 -184.75909463 190.27801008 C-184.75514967 177.46827469 -184.73770591 164.65859629 -184.7144061 151.84888291 C-184.69067044 138.69313301 -184.67822918 125.53741167 -184.67706418 112.38164002 C-184.67614848 104.99696854 -184.67042293 97.61237126 -184.65224457 90.22772026 C-184.63519742 83.27809773 -184.63360757 76.32861797 -184.64238358 69.37898064 C-184.64315411 66.83049645 -184.63880912 64.28200472 -184.62892532 61.73353958 C-184.61620612 58.24910805 -184.62208311 54.76517478 -184.63250732 51.28074646 C-184.62445092 50.27692899 -184.61639452 49.27311151 -184.60809398 48.23887533 C-184.67806708 38.20834313 -186.77830085 29.30302459 -194 22 C-201.82323962 15.75094884 -210.26921805 14.66866133 -220 14 C-220 12.35 -220 10.7 -220 9 C-219.13660287 8.99761165 -218.27320574 8.99522329 -217.38364506 8.99276257 C-196.26143864 8.93332436 -175.13934358 8.85759377 -154.01725864 8.76428509 C-143.80228782 8.71954223 -133.5873502 8.6800796 -123.37231445 8.65356445 C-114.45677247 8.63040844 -105.54133747 8.5968188 -96.62588066 8.55129844 C-91.9162217 8.52760047 -87.20666713 8.50871992 -82.49695015 8.50238609 C-54.80411311 8.46019339 -26.73612822 0 0 0 Z " fill="#9B6036" transform="translate(4304,4064)"/>
<path d="M0 0 C0.66 0 1.32 0 2 0 C2.14695313 0.68964844 2.29390625 1.37929687 2.4453125 2.08984375 C6.04332431 17.16427253 16.72399733 27.09283144 28.5 36.5 C39.96404494 45.69442911 52.32406213 56.58418518 54.7890625 71.8671875 C56.62387869 90.41921789 47.9845627 107.01290486 36.5078125 121.04296875 C32.76638811 125.45458598 28.92075694 129.74791149 25 134 C24.2471875 134.8559375 23.494375 135.711875 22.71875 136.59375 C18.12072939 141.82163645 13.37786904 146.57461457 8 151 C12.73681499 159.18177134 19.98058935 165.48127282 27.3125 171.3125 C41.59759194 182.79738926 52.77387737 194.24224352 55.28125 213.1171875 C56.30791529 233.7360487 40.82397349 252.45183568 27.875 266.875 C25.93212021 268.93468048 23.97731518 270.97400728 22 273 C21.27844727 273.7420166 20.55689453 274.4840332 19.81347656 275.24853516 C17.38462298 277.73719568 14.94483178 280.21453884 12.5 282.6875 C11.70964355 283.49106934 10.91928711 284.29463867 10.10498047 285.12255859 C9.35877441 285.86973145 8.61256836 286.6169043 7.84375 287.38671875 C7.17537109 288.05920654 6.50699219 288.73169434 5.81835938 289.42456055 C4 291 4 291 1 292 C0.83177734 290.90945313 0.83177734 290.90945313 0.66015625 289.796875 C-2.27503511 274.83315436 -12.74186979 265.82952094 -23.94921875 256.3515625 C-46.31450101 237.23676595 -46.31450101 237.23676595 -50 226 C-50.35578125 224.99259766 -50.35578125 224.99259766 -50.71875 223.96484375 C-54.53318885 211.34206256 -50.85697123 198.94282492 -45 187.625 C-35.09147736 169.27550707 -19.77580491 154.46939421 -5 140 C-9.69174234 133.56061724 -14.61077515 128.46516431 -20.86328125 123.546875 C-34.8238845 112.41459493 -49.41824027 99.55042177 -52 81 C-54.04302366 61.28661376 -41.40179854 44.38535722 -29.6550293 29.91503906 C-27.435354 27.34664652 -25.0606651 24.96976152 -22.61621094 22.61621094 C-20.90570035 20.90570035 -19.35870265 19.10938319 -17.8125 17.25 C-13.76832925 12.54103406 -9.1818235 8.46321611 -4.57421875 4.3203125 C-3.01635504 2.91610758 -1.48302576 1.48302576 0 0 Z " fill="#9B6036" transform="translate(4282,3710)"/>
<path d="M0 0 C0.14695313 0.96099609 0.14695313 0.96099609 0.296875 1.94140625 C3.33684879 19.5260822 18.38995771 30.57076403 31.25 41.6875 C40.36090211 49.66661303 50.69965243 59.2136441 52.23339844 71.93603516 C53.58993345 92.57749525 45.01736933 108.40419021 32 124 C31.57203125 124.51675293 31.1440625 125.03350586 30.703125 125.56591797 C8.55754331 152.22122834 8.55754331 152.22122834 -1 157 C-1.20302734 156.00033203 -1.20302734 156.00033203 -1.41015625 154.98046875 C-4.97853702 139.70267083 -14.64212427 130.99354992 -26.08984375 121.21484375 C-52.94732247 98.23612563 -52.94732247 98.23612563 -54.23828125 82.00390625 C-54.74796554 58.37065062 -41.08696721 40.27005062 -25.55859375 23.74609375 C-23.44823935 21.48108743 -21.42991642 19.17995952 -19.4375 16.8125 C-16.04297671 12.88502015 -12.23334026 9.4940743 -8.33203125 6.078125 C-5.96974242 4.02718841 -5.96974242 4.02718841 -3.82421875 1.734375 C-2 0 -2 0 0 0 Z " fill="#9B6036" transform="translate(4504,3315)"/>
<path d="M0 0 C0.14695312 0.68964844 0.29390625 1.37929687 0.4453125 2.08984375 C3.94625744 16.75759582 13.86143588 26.19776495 25.375 35.375 C37.5365423 45.14953471 50.67687323 56.73811259 53 73 C54.76406949 90.50068939 46.1838554 106.60905696 35.5 119.875 C34.0233804 121.60358247 32.51850068 123.30809029 31 125 C30.37279053 125.71043457 29.74558105 126.42086914 29.09936523 127.15283203 C23.29209857 133.68737834 17.24110301 139.94205503 11.0625 146.125 C10.10862907 147.09105215 9.15485262 148.0571976 8.20117188 149.0234375 C7.30076172 149.92578125 6.40035156 150.828125 5.47265625 151.7578125 C4.66062744 152.5739502 3.84859863 153.39008789 3.01196289 154.23095703 C1 156 1 156 -1 156 C-1.12375 155.26136719 -1.2475 154.52273437 -1.375 153.76171875 C-4.4570995 138.60164186 -14.80723654 129.84705474 -26.0546875 120.24609375 C-30.60072357 116.35367231 -34.91697211 112.25296239 -39.1875 108.0625 C-40.07961182 107.20241333 -40.07961182 107.20241333 -40.98974609 106.32495117 C-49.29985638 98.07894412 -53.94238139 88.84998808 -54.375 77 C-53.70351786 60.52286143 -44.21282044 45.35864211 -34 33 C-33.54608887 32.44602539 -33.09217773 31.89205078 -32.62451172 31.32128906 C-6.84951896 0 -6.84951896 0 0 0 Z " fill="#9B6036" transform="translate(3453,3400)"/>
<path d="M0 0 C3.81036377 0.74655151 3.81036377 0.74655151 5.51708984 3.02758789 C6.23179443 4.36164673 6.23179443 4.36164673 6.9609375 5.72265625 C7.50741943 6.72345215 8.05390137 7.72424805 8.61694336 8.75537109 C9.19710205 9.84672363 9.77726074 10.93807617 10.375 12.0625 C11.63208303 14.36959769 12.89124973 16.67556108 14.15234375 18.98046875 C14.63300041 19.86397003 14.63300041 19.86397003 15.12336731 20.76531982 C18.2724297 26.54176332 21.5926773 32.21050373 24.9375 37.875 C30.61153457 47.52916068 36.08674436 57.28338615 41.50195312 67.0847168 C47.23175131 77.44922134 53.08931694 87.7377708 59 98 C62.00912031 94.44402875 64.27788035 90.88287875 66.43359375 86.7578125 C66.74748047 86.16198364 67.06136719 85.56615479 67.38476562 84.95227051 C68.0568964 83.67594849 68.72683148 82.39846816 69.39474487 81.11993408 C71.17776433 77.70877244 72.97885998 74.30720703 74.78125 70.90625 C75.14246445 70.22430573 75.50367889 69.54236145 75.87583923 68.8397522 C78.95764513 63.04036455 82.16904512 57.32124172 85.4375 51.625 C91.60890649 40.85563621 97.41473958 29.90240338 103.17749023 18.91064453 C110.64856794 4.68602018 110.64856794 4.68602018 114 0 C114.99 0 115.98 0 117 0 C118.031467 6.83625748 119.06129647 13.6727601 120.08943748 20.50951862 C120.59562605 23.87536742 121.10220191 27.24115691 121.60968018 30.60681152 C123.88694552 45.71323445 126.1329951 60.82273253 128.2734375 75.94921875 C128.63148346 78.46606829 128.98955585 80.98291407 129.34765625 83.49975586 C130.02419625 88.25836509 130.68889059 93.01844287 131.34765625 97.77954102 C131.6558164 99.95204723 131.96438746 102.1244952 132.2734375 104.296875 C132.40438812 105.26827927 132.53533875 106.23968353 132.67025757 107.24052429 C133.86115604 116.79953079 133.86115604 116.79953079 138.83203125 124.62109375 C139.48558594 124.89050781 140.13914063 125.15992187 140.8125 125.4375 C141.85857422 125.87642578 141.85857422 125.87642578 142.92578125 126.32421875 C145.59632068 127.1942815 148.20680803 127.7206808 151 128 C151 128.99 151 129.98 151 131 C134.5 131 118 131 101 131 C101 130.01 101 129.02 101 128 C103.64 127.34 106.28 126.68 109 126 C110.71298665 120.93573812 111.15315977 117.4154165 110.41674805 112.02661133 C110.28792236 111.03985161 110.28792236 111.03985161 110.15649414 110.03315735 C109.87196515 107.88068151 109.5671359 105.73163387 109.26171875 103.58203125 C109.05828015 102.0772025 108.8560543 100.57220934 108.65498352 99.06706238 C108.12405793 95.11962588 107.57551372 91.17482871 107.02355957 87.23028564 C106.57587016 84.00937746 106.14066322 80.78684141 105.70611858 77.56413746 C105.18699626 73.71538719 104.66278594 69.86733786 104.13671875 66.01953125 C103.98668679 64.92199492 103.98668679 64.92199492 103.83362389 63.80228615 C103.54890856 61.72954313 103.26082754 59.65729974 102.97143555 57.58520508 C102.80773972 56.40718826 102.64404388 55.22917145 102.47538757 54.01545715 C102.09771871 51.61984491 101.64553197 49.3341982 101 47 C100.67427002 47.60658447 100.34854004 48.21316895 100.01293945 48.83813477 C93.88155635 60.24210094 87.70106528 71.61271349 81.3125 82.875 C80.77463867 83.82511963 80.23677734 84.77523926 79.68261719 85.75415039 C77.19263523 90.1487488 74.69201708 94.536693 72.171875 98.9140625 C65.72363699 110.19640963 60.45240934 121.42108265 57 134 C55.17578125 133.78808594 55.17578125 133.78808594 53 133 C51.54296875 131.01660156 51.54296875 131.01660156 50.1875 128.390625 C49.67590332 127.41955811 49.16430664 126.44849121 48.63720703 125.44799805 C48.09692871 124.39265869 47.55665039 123.33731934 47 122.25 C45.83282521 120.03144809 44.66351564 117.81401812 43.4921875 115.59765625 C42.9053418 114.48148926 42.31849609 113.36532227 41.71386719 112.21533203 C39.28015742 107.6495261 36.71639247 103.16514113 34.125 98.6875 C28.75776195 89.37809013 23.53008735 79.99467077 18.33837891 70.58666992 C15.30348421 65.09835546 12.2398745 59.62809388 9.11328125 54.19140625 C8.54005127 53.19439697 7.96682129 52.1973877 7.3762207 51.17016602 C6.92206787 50.45401123 6.46791504 49.73785645 6 49 C5.67 49 5.34 49 5 49 C3.93048936 58.03945454 2.86938925 67.07984531 1.8189764 76.12153912 C1.33095042 80.32004872 0.84004766 84.51817995 0.3425293 88.71557617 C-0.13760676 92.76723416 -0.61013205 96.81971428 -1.07742119 100.87287331 C-1.25692102 102.41811552 -1.4391486 103.96304343 -1.62416267 105.50763512 C-1.88308095 107.6731819 -2.13222732 109.83964911 -2.37915039 112.0065918 C-2.52349014 113.23903122 -2.6678299 114.47147064 -2.81654358 115.74125671 C-3.02883401 119.51217968 -2.96727541 122.5745415 -0.8125 125.75 C1.68282899 127.47091655 4.02493408 127.66943712 7 128 C7 128.99 7 129.98 7 131 C-6.2 131 -19.4 131 -33 131 C-33 130.01 -33 129.02 -33 128 C-32.40832031 127.90203125 -31.81664063 127.8040625 -31.20703125 127.703125 C-26.16626836 126.74924491 -22.68851724 125.80029049 -19 122 C-17.2576722 119.04169274 -16.5966607 116.42433625 -16.11410522 113.03924561 C-15.96831528 112.04087677 -15.82252533 111.04250793 -15.6723175 110.0138855 C-15.5205455 108.92487946 -15.3687735 107.83587341 -15.21240234 106.71386719 C-15.04629959 105.56236176 -14.88019684 104.41085632 -14.70906067 103.22445679 C-14.16140262 99.41617817 -13.62364068 95.60657084 -13.0859375 91.796875 C-12.70825926 89.15691357 -12.33003472 86.51703623 -11.95108032 83.8772583 C-11.05661095 77.63788743 -10.16925674 71.39752635 -9.2844578 65.15677762 C-8.27663966 58.0508316 -7.26088946 50.94602665 -6.24447322 43.84130621 C-4.15415735 29.22879103 -2.07380023 14.61486844 0 0 Z " fill="#9B6036" transform="translate(4427,4517)"/>
<path d="M0 0 C10.41509707 -0.06995925 20.83013689 -0.12304197 31.24542236 -0.15543652 C36.08329657 -0.17099566 40.92100831 -0.19205238 45.75878906 -0.22631836 C50.4402218 -0.25926391 55.1214997 -0.27692602 59.80303955 -0.28463173 C61.57613558 -0.29011284 63.34922455 -0.30081293 65.12225342 -0.31719017 C87.18314357 -0.51258856 108.63280981 2.90166488 125.25 18.75 C139.21736503 33.41792252 141.51532912 50.44480263 141.27734375 69.9140625 C140.80576687 85.12183045 135.16158359 98.54032428 124.6640625 109.58203125 C105.98421885 126.53631749 82.71933766 128.35403051 58.59375 128.1953125 C56.8902605 128.19156991 55.18676881 128.18872885 53.48327637 128.18673706 C49.05781832 128.17919853 44.63249722 128.15963751 40.20709229 128.1373291 C35.66802827 128.11665652 31.12894154 128.10769016 26.58984375 128.09765625 C17.72650053 128.07637957 8.86326743 128.04236615 0 128 C0 127.01 0 126.02 0 125 C0.68707031 124.82984375 1.37414063 124.6596875 2.08203125 124.484375 C2.98308594 124.24203125 3.88414062 123.9996875 4.8125 123.75 C5.70582031 123.51796875 6.59914063 123.2859375 7.51953125 123.046875 C10.42856235 121.81912644 11.39982831 120.68546164 13 118 C13.91466117 115.2560165 14.12910735 113.63315702 14.14044189 110.80729675 C14.14615204 109.95360001 14.15186218 109.09990326 14.15774536 108.22033691 C14.15886322 107.28677368 14.15998108 106.35321045 14.16113281 105.39135742 C14.16609772 104.4056929 14.17106262 103.42002838 14.17617798 102.40449524 C14.19080338 99.13814602 14.19760231 95.87184536 14.203125 92.60546875 C14.20887621 90.337265 14.21463395 88.06906126 14.22039795 85.80085754 C14.23090906 81.04195936 14.23675099 76.28307808 14.24023438 71.52416992 C14.24571881 65.42761463 14.26974546 59.33128271 14.29820633 53.23479748 C14.31683436 48.54819589 14.32203841 43.86164808 14.32357025 39.17501259 C14.32659701 36.9275522 14.33462628 34.68009276 14.34775543 32.43266869 C14.36481875 29.28721523 14.36293476 26.14230719 14.35644531 22.99682617 C14.3656601 22.06933563 14.37487488 21.14184509 14.3843689 20.18624878 C14.35113169 15.04082312 13.8959979 11.44235879 11 7 C7.50480992 4.26052669 4.37356702 3.5085543 0 3 C0 2.01 0 1.02 0 0 Z M35 8 C35 44.96 35 81.92 35 120 C72.17624338 122.38832395 72.17624338 122.38832395 104.3125 107.25 C117.51870897 92.96352853 119.6876706 75.11687533 119.12744141 56.46777344 C118.44014746 43.1590239 113.24458991 29.41291702 103.9453125 19.67578125 C84.15436166 2.6269501 60.77302569 8 35 8 Z " fill="#9B6036" transform="translate(3862,4520)"/>
<path d="M0 0 C0.99 0 1.98 0 3 0 C9.77636719 14.68212891 16.55273438 29.36425781 23.32910156 44.04638672 C23.7010968 44.85236298 24.07309204 45.65833923 24.45635986 46.48873901 C25.19887348 48.09754564 25.94134583 49.70637132 26.68377686 51.31521606 C28.52649666 55.30824883 30.36993497 59.30094684 32.21484375 63.29296875 C35.73375343 70.90917164 39.2452318 78.52857565 42.73382568 86.15872192 C44.38115839 89.76064921 46.03222945 93.36085712 47.68359375 96.9609375 C48.469646 98.67736634 49.25386621 100.39463551 50.03613281 102.11279297 C51.12101884 104.49531541 52.21218947 106.87486674 53.3046875 109.25390625 C53.62057831 109.95209976 53.93646912 110.65029327 54.26193237 111.36964417 C57.3483632 118.05896467 60.34838385 123.34813231 67 127 C69.32482269 127.82327725 71.59545006 128.42290802 74 129 C74 129.99 74 130.98 74 132 C57.17 132 40.34 132 23 132 C23 131.01 23 130.02 23 129 C24.11375 128.54625 25.2275 128.0925 26.375 127.625 C29.96199008 126.27534014 29.96199008 126.27534014 32 124 C32.42685594 119.49093594 31.60609828 116.3499932 29.8125 112.234375 C29.36132812 111.17992188 28.91015625 110.12546875 28.4453125 109.0390625 C27.96835938 107.95367187 27.49140625 106.86828125 27 105.75 C26.05957226 103.57939111 25.12192289 101.40757566 24.1875 99.234375 C23.76855469 98.27756836 23.34960938 97.32076172 22.91796875 96.33496094 C22 94 22 94 22 92 C5.5 92 -11 92 -28 92 C-28.99 94.97 -29.98 97.94 -31 101 C-31.58218485 102.47273829 -32.18309942 103.93866375 -32.82421875 105.38671875 C-33.13037109 106.09763672 -33.43652344 106.80855469 -33.75195312 107.54101562 C-34.38181872 108.9861561 -35.01735224 110.42883794 -35.65820312 111.86914062 C-37.44114665 116.03947974 -38.61279979 119.37301729 -38 124 C-35.27061743 126.80519876 -32.89523329 128.4229284 -29 129 C-29 129.99 -29 130.98 -29 132 C-42.86 132 -56.72 132 -71 132 C-71 131.01 -71 130.02 -71 129 C-70.33613281 128.84144531 -69.67226562 128.68289063 -68.98828125 128.51953125 C-68.10527344 128.28621094 -67.22226563 128.05289063 -66.3125 127.8125 C-65.44238281 127.59207031 -64.57226562 127.37164062 -63.67578125 127.14453125 C-57.83398807 124.64577884 -54.89109318 119.58221478 -52.11328125 114.12109375 C-51.77170486 113.46451279 -51.43012848 112.80793182 -51.07820129 112.13145447 C-47.85829772 105.87107295 -44.92967195 99.48484102 -42.07214355 93.05224609 C-36.01558668 79.42979859 -29.68292948 65.94803964 -23.25 52.5 C-10.77992142 26.61468332 -10.77992142 26.61468332 0 0 Z M-3 34 C-8.90788204 47.12160609 -14.78617611 60.2484319 -20.25 73.5625 C-20.8231897 74.95202881 -20.8231897 74.95202881 -21.40795898 76.36962891 C-21.75286377 77.21831543 -22.09776855 78.06700195 -22.453125 78.94140625 C-22.75379883 79.68076416 -23.05447266 80.42012207 -23.36425781 81.18188477 C-24.11002458 82.99364154 -24.11002458 82.99364154 -24 85 C-9.9779359 85.17358814 3.99358774 84.63488981 18 84 C15.96142282 77.57997617 13.59103923 71.36306203 10.98828125 65.15234375 C10.61519333 64.25504044 10.24210541 63.35773712 9.85771179 62.4332428 C8.67893059 59.60008659 7.49579446 56.76877373 6.3125 53.9375 C5.50687149 52.00337597 4.70153019 50.06913227 3.89648438 48.13476562 C1.93430557 43.42178791 -0.03177792 38.71045695 -2 34 C-2.33 34 -2.66 34 -3 34 Z " fill="#9B6036" transform="translate(3648,4516)"/>
<path d="M0 0 C1.8034668 0.11303711 1.8034668 0.11303711 4 1 C5.59301758 3.63500977 5.59301758 3.63500977 7.14453125 7.19140625 C7.4307988 7.83496567 7.71706635 8.47852509 8.01200867 9.1415863 C8.63229917 10.54035808 9.24586768 11.94212548 9.85351562 13.34643555 C11.15864586 16.36238951 12.49543584 19.36395749 13.83041382 22.36679077 C14.52383397 23.92743172 15.21556372 25.48882476 15.90567017 27.05093384 C19.0235064 34.09932368 22.27894806 41.07802172 25.57495117 48.04449463 C30.76148838 59.008566 35.85030098 70.01326228 40.85089111 81.06335449 C43.28482039 86.43978145 45.72811859 91.81196159 48.17327881 97.18328857 C48.96484499 98.92274723 49.7551568 100.66277655 50.54541016 102.40283203 C51.89309576 105.35770684 53.25577863 108.30505606 54.625 111.25 C55.19118042 112.49946411 55.19118042 112.49946411 55.76879883 113.77416992 C59.00234753 120.65466578 62.83188516 125.01328548 70 128 C72.73572585 128.69907414 72.73572585 128.69907414 75 129 C75 129.99 75 130.98 75 132 C58.17 132 41.34 132 24 132 C24 131.01 24 130.02 24 129 C25.7578125 128.4140625 27.515625 127.828125 29.2734375 127.2421875 C31.98889049 125.2885358 32.27379609 123.20583281 33 120 C32.28569718 116.7524447 32.28569718 116.7524447 30.7890625 113.5078125 C30.33740723 112.4264502 29.88575195 111.34508789 29.42041016 110.23095703 C28.8279248 108.87599121 28.23543945 107.52102539 27.625 106.125 C25.76875 101.79375 23.9125 97.4625 22 93 C5.83 93 -10.34 93 -27 93 C-28.629375 96.856875 -30.25875 100.71375 -31.9375 104.6875 C-32.45046631 105.89494873 -32.96343262 107.10239746 -33.49194336 108.34643555 C-33.89550049 109.308479 -34.29905762 110.27052246 -34.71484375 111.26171875 C-35.12855225 112.24100342 -35.54226074 113.22028809 -35.96850586 114.22924805 C-37.9385056 119.42091042 -37.9385056 119.42091042 -37 124.6875 C-34.34376069 127.7587767 -31.90520356 128.18948605 -28 129 C-28.33 129.99 -28.66 130.98 -29 132 C-42.53 132 -56.06 132 -70 132 C-70 131.01 -70 130.02 -70 129 C-68.89591797 128.67128906 -68.89591797 128.67128906 -67.76953125 128.3359375 C-66.79371094 128.01882813 -65.81789063 127.70171875 -64.8125 127.375 C-63.84957031 127.07335938 -62.88664062 126.77171875 -61.89453125 126.4609375 C-54.24576356 122.60042587 -51.44933384 114.25424783 -48 106.875 C-47.43531006 105.68430908 -46.87062012 104.49361816 -46.28881836 103.2668457 C-44.51249731 99.51745302 -42.75463527 95.75957955 -41 92 C-40.45746582 90.83936035 -39.91493164 89.6787207 -39.35595703 88.48291016 C-36.66634068 82.72085184 -33.99047997 76.95258702 -31.32421875 71.1796875 C-29.05111851 66.26060401 -26.7615482 61.34971881 -24.45703125 56.4453125 C-18.80257979 44.40610787 -13.19575393 32.3512508 -7.8125 20.1875 C-7.36696777 19.18630127 -6.92143555 18.18510254 -6.46240234 17.15356445 C-3.98628883 11.51128089 -1.85425139 5.87682932 0 0 Z M-3 34 C-3.52787109 35.25937378 -3.52787109 35.25937378 -4.06640625 36.54418945 C-5.41105278 39.75198768 -6.75586517 42.9597163 -8.10073853 46.16741943 C-8.99660968 48.30441281 -9.89223192 50.44151039 -10.7878418 52.57861328 C-13.39865756 58.80714964 -16.01113481 65.03487226 -18.64453125 71.25390625 C-19.01771484 72.1358667 -19.39089844 73.01782715 -19.77539062 73.92651367 C-20.45355765 75.52758173 -21.13318526 77.12803212 -21.81445312 78.7277832 C-23.33296563 81.76415512 -23.33296563 81.76415512 -24 85 C-9.64668852 85.17991616 4.66161788 84.62175432 19 84 C16.357411 77.32357661 13.68723909 70.65857646 11 64 C10.75390991 63.38995117 10.50781982 62.77990234 10.25427246 62.15136719 C8.65615397 58.19302386 7.04882733 54.23857528 5.4317627 50.28793335 C4.89348709 48.96991557 4.35760052 47.65091962 3.82409668 46.33096313 C3.06889611 44.46410241 2.30417788 42.60110044 1.5390625 40.73828125 C1.09771973 39.65587158 0.65637695 38.57346191 0.20166016 37.45825195 C-0.75577321 34.86913077 -0.75577321 34.86913077 -3 34 Z " fill="#9B6036" transform="translate(3097,4516)"/>
<path d="M0 0 C0 9.24 0 18.48 0 28 C-0.99 28 -1.98 28 -3 28 C-3.18175781 27.11248047 -3.18175781 27.11248047 -3.3671875 26.20703125 C-4.52112275 19.85356211 -4.52112275 19.85356211 -7 14 C-12.19471391 11.67764521 -17.19029198 11.65832587 -22.7734375 11.5859375 C-23.59303955 11.56829346 -24.4126416 11.55064941 -25.25708008 11.5324707 C-28.29619324 11.46977089 -31.33562438 11.42333132 -34.375 11.375 C-41.18125 11.25125 -47.9875 11.1275 -55 11 C-55 28.16 -55 45.32 -55 63 C-49.328125 62.9175 -43.65625 62.835 -37.8125 62.75 C-35.13991089 62.72631348 -35.13991089 62.72631348 -32.41333008 62.70214844 C-30.99036448 62.67276497 -29.56742767 62.64193671 -28.14453125 62.609375 C-27.41439819 62.60824707 -26.68426514 62.60711914 -25.93200684 62.60595703 C-21.02801302 62.46906257 -18.42698554 61.52825966 -15 58 C-13.99424463 55.68189443 -13.99424463 55.68189443 -13.6875 53.25 C-13.54699219 52.45078125 -13.40648438 51.6515625 -13.26171875 50.828125 C-13.13216797 49.92320313 -13.13216797 49.92320313 -13 49 C-12.01 49 -11.02 49 -10 49 C-10 60.88 -10 72.76 -10 85 C-10.99 85 -11.98 85 -13 85 C-13.08636719 84.39671875 -13.17273437 83.7934375 -13.26171875 83.171875 C-13.40222656 82.37265625 -13.54273437 81.5734375 -13.6875 80.75 C-13.81511719 79.96109375 -13.94273438 79.1721875 -14.07421875 78.359375 C-15.38472725 75.01951367 -16.98260794 73.93304799 -20 72 C-22.83636973 71.59043444 -25.30952854 71.39500459 -28.14453125 71.390625 C-28.82753296 71.37499512 -29.51053467 71.35936523 -30.2142334 71.34326172 C-32.74663986 71.2909689 -35.27965316 71.27244802 -37.8125 71.25 C-43.484375 71.1675 -49.15625 71.085 -55 71 C-55 88.16 -55 105.32 -55 123 C-49.8025 122.896875 -44.605 122.79375 -39.25 122.6875 C-37.63641602 122.66260498 -36.02283203 122.63770996 -34.36035156 122.61206055 C-22.76967638 122.31908592 -11.06016444 121.84917102 -2.30078125 113.3515625 C2.57775658 108.16613183 5.82104021 102.33463049 9 96 C10.485 96.495 10.485 96.495 12 97 C10.59821016 101.68262299 9.19228963 106.36397754 7.7824707 111.04418945 C7.30313258 112.63759455 6.82493915 114.23134445 6.34790039 115.82543945 C5.66330485 118.11240087 4.97464589 120.39810381 4.28515625 122.68359375 C3.96479149 123.7586039 3.96479149 123.7586039 3.63795471 124.85533142 C2.11387171 129.88612829 2.11387171 129.88612829 1 131 C-1.83040672 131.09520906 -4.63634993 131.12553631 -7.46704102 131.11352539 C-8.35476196 131.11367142 -9.24248291 131.11381744 -10.15710449 131.1139679 C-13.10606284 131.11326843 -16.05495887 131.10547448 -19.00390625 131.09765625 C-21.04271917 131.09579219 -23.08153254 131.09436823 -25.12034607 131.09336853 C-30.49784574 131.08954241 -35.87531858 131.07971132 -41.25280762 131.06866455 C-46.73559201 131.05845245 -52.21838072 131.05387134 -57.70117188 131.04882812 C-68.46745973 131.03808914 -79.23372764 131.02101159 -90 131 C-90 130.01 -90 129.02 -90 128 C-89.31292969 127.82984375 -88.62585937 127.6596875 -87.91796875 127.484375 C-87.01691406 127.24203125 -86.11585937 126.9996875 -85.1875 126.75 C-84.29417969 126.51796875 -83.40085938 126.2859375 -82.48046875 126.046875 C-79.51840374 124.79674363 -78.67352423 123.7119429 -77 121 C-76.55210801 118.81033202 -76.55210801 118.81033202 -76.61231995 116.45252991 C-76.60241531 115.54552841 -76.59251068 114.63852692 -76.58230591 113.70404053 C-76.58680756 112.71639709 -76.5913092 111.72875366 -76.59594727 110.71118164 C-76.58908401 109.66524338 -76.58222076 108.61930511 -76.57514954 107.54167175 C-76.55683439 104.08102885 -76.5607259 100.62083726 -76.56640625 97.16015625 C-76.5618467 94.75646313 -76.55654181 92.35277132 -76.55052185 89.94908142 C-76.54158144 84.90944119 -76.54402453 79.86995935 -76.55395508 74.83032227 C-76.56544529 68.36926292 -76.54523656 61.90875003 -76.51603794 55.44776249 C-76.49769949 50.4832359 -76.49796375 45.51884082 -76.50367546 40.55428886 C-76.50382897 38.17203441 -76.49776065 35.78977121 -76.48538399 33.4075489 C-76.470521 30.07742065 -76.48111757 26.74830914 -76.49829102 23.41821289 C-76.48862305 22.43259369 -76.47895508 21.44697449 -76.46899414 20.43148804 C-76.51573503 16.1071776 -76.59529214 13.66451311 -78.88389587 9.90672302 C-81.23588963 7.78745082 -82.65172576 7.18869142 -85.75 6.6875 C-86.54921875 6.54699219 -87.3484375 6.40648438 -88.171875 6.26171875 C-88.77515625 6.17535156 -89.3784375 6.08898438 -90 6 C-90 5.01 -90 4.02 -90 3 C-88.62723152 2.98786972 -88.62723152 2.98786972 -87.22673035 2.97549438 C-78.5622317 2.89724857 -69.89788213 2.80986965 -61.23357677 2.71247292 C-56.78017929 2.66272728 -52.32680306 2.61639705 -47.87329102 2.578125 C-43.56784392 2.54099549 -39.26258473 2.49456428 -34.95730019 2.44193649 C-33.32247559 2.42353835 -31.68761094 2.40837786 -30.05272484 2.39665604 C-21.9648211 2.33664219 -14.1203724 2.19062882 -6.18232727 0.42294312 C-4 0 -4 0 0 0 Z " fill="#9B6036" transform="translate(4243,4517)"/>
<path d="M0 0 C1.10214844 0.4228125 2.20429688 0.845625 3.33984375 1.28125 C6 3 6 3 6.98828125 5.75 C7.14876953 7.35875 7.14876953 7.35875 7.3125 9 C7.44011719 10.16015625 7.56773437 11.3203125 7.69921875 12.515625 C7.84810547 14.24039063 7.84810547 14.24039063 8 16 C8.16435547 17.47726562 8.16435547 17.47726562 8.33203125 18.984375 C8.93516659 24.67797262 9.09381557 30.27725009 9 36 C7.515 35.505 7.515 35.505 6 35 C4.82421875 32.33984375 4.82421875 32.33984375 3.6875 28.9375 C1.54300789 23.08655735 -0.76742218 18.5678315 -5 14 C-5.75023438 13.18789063 -5.75023438 13.18789063 -6.515625 12.359375 C-16.40559319 2.85348324 -30.80152678 0.62410472 -43.96459961 0.69946289 C-56.45716849 1.02794336 -67.75425222 5.04505605 -77.1875 13.375 C-89.74130431 26.93620836 -92.82056517 45.54203711 -92.2734375 63.36328125 C-91.53137174 78.26899052 -87.04463528 92.96935886 -76.75 104.125 C-63.97026921 115.66869465 -49.01015552 116.86606377 -32.64941406 116.1953125 C-20.39682491 115.29206229 -8.90391067 109.90842978 -0.5234375 100.8984375 C6.78695296 91.78856631 9.74816958 80.2591521 12 69 C12.66 69 13.32 69 14 69 C14.22491386 73.23145631 14.38686795 77.45962793 14.49438477 81.6953125 C14.53925472 83.13115099 14.60038324 84.56658752 14.67895508 86.00097656 C15.09293772 93.76112176 15.17981121 99.65760913 9.7109375 105.80078125 C8.18472233 107.2484758 6.61620012 108.65350476 5 110 C4.29423828 110.60457031 3.58847656 111.20914063 2.86132812 111.83203125 C-8.42938035 121.12449273 -23.5565471 125.41923179 -38 126 C-38.67546875 126.03996094 -39.3509375 126.07992187 -40.046875 126.12109375 C-59.67742741 126.74838584 -80.36357223 121.61827509 -95.375 108.625 C-108.98998411 95.56167651 -114.91534907 80.63871692 -115.40429688 61.92651367 C-115.60147977 42.31986484 -111.65936957 25.69709552 -98 11 C-72.71522254 -13.70403169 -30.81591306 -12.20726991 0 0 Z " fill="#9B6036" transform="translate(3423,4525)"/>
<path d="M0 0 C18.48 0 36.96 0 56 0 C56 0.99 56 1.98 56 3 C55.43410156 3.12117188 54.86820313 3.24234375 54.28515625 3.3671875 C53.18494141 3.61855469 53.18494141 3.61855469 52.0625 3.875 C51.33160156 4.03742188 50.60070313 4.19984375 49.84765625 4.3671875 C47.79299706 4.82961523 47.79299706 4.82961523 47 7 C46.63523316 11.57594815 47.29123296 14.2559556 49.5703125 18.2109375 C50.13081299 19.19771484 50.69131348 20.18449219 51.26879883 21.20117188 C51.88134521 22.24853516 52.4938916 23.29589844 53.125 24.375 C53.74721436 25.46103516 54.36942871 26.54707031 55.01049805 27.66601562 C56.65804672 30.53419268 58.31695912 33.39532811 59.98297119 36.25280762 C60.99930434 37.9988049 62.01099087 39.74740583 63.02099609 41.49707031 C66.11114317 46.84968711 69.20967949 52.19734525 72.33203125 57.53125 C72.82421143 58.37236328 73.3163916 59.21347656 73.82348633 60.08007812 C74.85778405 61.93560113 74.85778405 61.93560113 76 63 C76.45213867 62.22624023 76.90427734 61.45248047 77.37011719 60.65527344 C79.10646584 57.68508758 80.8439853 54.71559165 82.58203125 51.74639893 C83.74846808 49.7526185 84.91330166 47.75790698 86.078125 45.76318359 C89.58654841 39.76336255 93.11011217 33.77911623 96.765625 27.8671875 C97.31766602 26.97032227 97.86970703 26.07345703 98.43847656 25.14941406 C99.45116542 23.51226541 100.47341366 21.88097658 101.50683594 20.25683594 C104.28235509 15.757761 105.79063451 12.32193556 106 7 C105.06402685 4.98048938 105.06402685 4.98048938 103 4 C99.89160979 3.2730774 99.89160979 3.2730774 97 3 C97 2.01 97 1.02 97 0 C111.85 0 126.7 0 142 0 C142 0.99 142 1.98 142 3 C141.38253906 3.07476562 140.76507813 3.14953125 140.12890625 3.2265625 C133.30776544 4.2855524 128.3082617 6.55024988 123 11 C122.67 11.66 122.34 12.32 122 13 C121.34 13 120.68 13 120 13 C119.73082764 13.72783691 119.46165527 14.45567383 119.18432617 15.20556641 C118.02244466 17.94704152 116.68950781 20.22997876 115.05078125 22.7109375 C114.4570874 23.61505371 113.86339355 24.51916992 113.25170898 25.45068359 C112.61177002 26.41570801 111.97183105 27.38073242 111.3125 28.375 C109.95558492 30.4374051 108.59881851 32.49990803 107.2421875 34.5625 C106.54319336 35.62210938 105.84419922 36.68171875 105.12402344 37.7734375 C101.70894833 42.96121137 98.32474634 48.16903211 94.9375 53.375 C93.73886645 55.21652687 92.53967333 57.05768967 91.33984375 58.8984375 C90.83831787 59.66849121 90.33679199 60.43854492 89.82006836 61.23193359 C88.75909914 62.84551763 87.66179986 64.43818286 86.48187256 65.9669342 C82.19992109 71.75082523 81.12341744 75.94523089 81.2734375 83.07421875 C81.27244049 84.00168411 81.27144348 84.92914948 81.27041626 85.88471985 C81.27506608 87.83021693 81.2943354 89.77572966 81.32763672 91.72094727 C81.37505128 94.6907119 81.36871148 97.65690298 81.35546875 100.62695312 C81.36661779 102.52606295 81.38083474 104.42515778 81.3984375 106.32421875 C81.39661469 107.20559006 81.39479187 108.08696136 81.39291382 108.99504089 C81.517888 114.44521565 82.31583345 117.70971224 86 122 C88.52627489 123.33090417 88.52627489 123.33090417 91.25 123.875 C92.14203125 124.09929687 93.0340625 124.32359375 93.953125 124.5546875 C94.62859375 124.70164063 95.3040625 124.84859375 96 125 C96 125.99 96 126.98 96 128 C79.5 128 63 128 46 128 C46 127.01 46 126.02 46 125 C46.61488281 124.81824219 47.22976563 124.63648437 47.86328125 124.44921875 C48.67152344 124.19785156 49.47976563 123.94648438 50.3125 123.6875 C51.11300781 123.44386719 51.91351563 123.20023438 52.73828125 122.94921875 C55.89178885 121.62572592 57.48076458 120.03847083 59 117 C61.31071799 97.59687392 63.59940298 73.44484028 51.11401367 57.31323242 C49.79245112 55.70914357 48.45000458 54.12204678 47.08789062 52.55224609 C43.14372198 47.73087811 40.02705486 42.34827391 36.75 37.0625 C35.40500168 34.96230243 34.05616323 32.86455819 32.703125 30.76953125 C30.45803364 27.2825595 28.23617901 23.78394046 26.046875 20.26171875 C21.21174271 12.57195892 17.28106423 6.53481516 8.05859375 4.28125 C5.37554872 3.76040345 2.71188803 3.33400092 0 3 C0 2.01 0 1.02 0 0 Z " fill="#9B6036" transform="translate(4705,4520)"/>
</svg>
